<svg id="Layer_1" data-name="Layer 1" xmlns="http://www.w3.org/2000/svg" viewBox="0 0 425 425">
  <defs>
    <style>
      .cls-1 {
        fill: #0da6a1;
        opacity: 0.05;
      }

      .cls-2 {
        fill: #464646;
      }
    </style>
  </defs>
  <g>
    <circle class="cls-1" cx="212" cy="212" r="207.5"/>
    <g>
      <path class="cls-2" d="M299.1,232.43,279.32,127.9a3,3,0,0,0-2.95-2.44H147.63a3,3,0,0,0-2.95,2.44L124.91,232.38h0v0a.76.76,0,0,1,0,.15,2.71,2.71,0,0,0,0,.41v62.55a3,3,0,0,0,3,3H297.39c1.56,0,1.61-1.18,1.7-3,.09-1.56,0-56.71,0-62.09A3.17,3.17,0,0,0,299.1,232.43ZM294,294.08H129.83V236H294S294,293.45,294,294.08Z"/>
      <path class="cls-2" d="M233,255H191a15.53,15.53,0,0,0-15.52,15.52,3,3,0,0,0,6,0A9.53,9.53,0,0,1,191,261h42a9.53,9.53,0,0,1,9.51,9.51,3,3,0,0,0,6,0A15.53,15.53,0,0,0,233,255Z"/>
    </g>
  </g>
</svg>
