<svg id="Layer_1" data-name="Layer 1" xmlns="http://www.w3.org/2000/svg" viewBox="0 0 425 425">
  <defs>
    <style>
      .cls-1 {
        fill: #0da6a1;
        opacity: 0.05;
      }

      .cls-2, .cls-4 {
        fill: #464646;
      }

      .cls-2, .cls-3 {
        stroke: #464646;
        stroke-width: 2px;
      }

      .cls-2 {
        stroke-miterlimit: 10;
      }

      .cls-3 {
        fill: none;
        stroke-linecap: square;
        stroke-linejoin: round;
      }
    </style>
  </defs>
  <g>
    <circle class="cls-1" cx="212" cy="212" r="207.5"/>
    <g>
      <g>
        <path class="cls-2" d="M195,164.46c-6.3,0-8.16-4.19-8.28-4.46L182,150.71c-3.44-7.26-11.58-6.93-11.86-6.91h-39.3c-9.81,0-12.43,5.55-12.43,13.57,0,0,.11,114.42.17,115.05a.9.9,0,0,0,0,.16l.07,0c.83,8,6.09,8.1,6.33,8.1H283.74c9.78,0,13.93-9.42,14.1-9.81l16-33.8-2.64-.19-15.74,33c-.14.33-3.67,8.26-11.73,8.26H124.91c-.14,0-3.08-.2-3.75-5.45,2-6.66,19.34-64.51,21.76-73,2.2-7.71,7.33-6.88,7.55-6.84l94.58,0v-2.59H150.8c-1.12-.13-7.73-.54-10.36,8.69-2,7-14.08,47.34-19.42,65.16V158c0-3,.67-11.61,9.77-11.61h39.37c.06,0,6.75-.28,9.48,5.48l4.75,9.22c.1.24,2.53,6,10.63,6H254a28,28,0,0,1,3-2.59Z"/>
        <polyline class="cls-3" points="192.18 223.68 208.4 237.86 192.18 252.05"/>
        <polyline class="cls-3" points="169.03 252.05 152.81 237.86 169.03 223.68"/>
      </g>
      <path class="cls-4" d="M334.92,190.63h-2.74a1.93,1.93,0,0,1-1.78-1.19l-4.22-10.21a1.91,1.91,0,0,1,.41-2.09l1.94-1.94a1.93,1.93,0,0,0,0-2.72l-8.16-8.16a1.93,1.93,0,0,0-2.72,0l-1.94,1.94a1.93,1.93,0,0,1-2.09.42l-10.21-4.23a1.93,1.93,0,0,1-1.19-1.78v-2.74A1.92,1.92,0,0,0,300.3,156H288.76a1.92,1.92,0,0,0-1.92,1.92v2.74a1.93,1.93,0,0,1-1.19,1.78l-10.21,4.23a1.93,1.93,0,0,1-2.09-.42l-1.94-1.94a1.93,1.93,0,0,0-2.72,0l-8.16,8.16a1.93,1.93,0,0,0,0,2.72l1.94,1.94a1.91,1.91,0,0,1,.41,2.09l-4.22,10.21a1.93,1.93,0,0,1-1.78,1.19h-2.74a1.92,1.92,0,0,0-1.92,1.92v11.54a1.92,1.92,0,0,0,1.92,1.92h2.74a1.93,1.93,0,0,1,1.78,1.19l4.22,10.21a1.91,1.91,0,0,1-.41,2.09l-1.94,1.94a1.93,1.93,0,0,0,0,2.72l8.16,8.16a1.93,1.93,0,0,0,2.72,0l1.94-1.94a1.91,1.91,0,0,1,2.09-.41l10.21,4.22a1.93,1.93,0,0,1,1.19,1.78v2.74a1.92,1.92,0,0,0,1.92,1.92H300.3a1.92,1.92,0,0,0,1.92-1.92V236a1.93,1.93,0,0,1,1.19-1.78L313.62,230a1.91,1.91,0,0,1,2.09.41l1.94,1.94a1.93,1.93,0,0,0,2.72,0l8.16-8.16a1.93,1.93,0,0,0,0-2.72l-1.94-1.94a1.91,1.91,0,0,1-.41-2.09l4.22-10.21a1.93,1.93,0,0,1,1.78-1.19h2.74a1.92,1.92,0,0,0,1.92-1.92V192.55A1.92,1.92,0,0,0,334.92,190.63ZM294.53,221.4a23.08,23.08,0,1,1,23.08-23.08A23.08,23.08,0,0,1,294.53,221.4Z"/>
    </g>
  </g>
</svg>
