<?xml version="1.0" encoding="utf-8"?>
<!-- Generator: Adobe Illustrator 23.1.1, SVG Export Plug-In . SVG Version: 6.00 Build 0)  -->
<svg version="1.1" id="Layer_1" xmlns="http://www.w3.org/2000/svg" xmlns:xlink="http://www.w3.org/1999/xlink" x="0px" y="0px"
	 viewBox="0 0 482 425" style="enable-background:new 0 0 482 425;" xml:space="preserve">
<style type="text/css">
	.st0{opacity:5.000000e-02;fill:#0DA6A1;enable-background:new    ;}
	.st1{fill:none;stroke:#484751;stroke-width:2.6322;stroke-linecap:square;stroke-miterlimit:10;}
	.st2{fill:none;stroke:#505050;stroke-width:2;stroke-miterlimit:10;}
	.st3{fill:#505050;}
	.st4{opacity:5.000000e-02;fill:#009AB7;enable-background:new    ;}
	.st5{opacity:5.000000e-02;fill:#0099B9;enable-background:new    ;}
	.st6{fill:none;stroke:#484751;stroke-width:2.6322;stroke-miterlimit:10;}
	.st7{fill:#484751;}
	.st8{fill:#FFFFFF;}
	.st9{fill:none;stroke:#464646;stroke-width:2;stroke-linecap:round;stroke-linejoin:round;stroke-miterlimit:10;}
	.st10{fill:#464646;}
	.st11{fill:#FFFFFF;stroke:#464646;stroke-width:2;stroke-linecap:round;stroke-linejoin:round;stroke-miterlimit:10;}
	.st12{fill:none;stroke:#464646;stroke-width:4;stroke-miterlimit:10;}
	.st13{fill:none;stroke:#464646;stroke-width:2;stroke-miterlimit:10;}
	.st14{fill:none;stroke:#464646;stroke-width:3;stroke-miterlimit:10;}
</style>
<circle class="st0" cx="-583" cy="1052.5" r="107.9"/>
<g id="_x39__1_">
	<line class="st1" x1="-603.2" y1="1063.3" x2="-611.6" y2="1054.5"/>
	<polyline class="st1" points="-563.9,1055.4 -530,1089.3 -553.4,1112.7 	"/>
	<polyline class="st1" points="-613.2,1052.9 -645.5,1020.6 -622.1,997.2 -582.7,1036.6 	"/>
	<line class="st1" x1="-536.2" y1="1083.9" x2="-540.5" y2="1088.1"/>
	<line class="st1" x1="-545.6" y1="1074.4" x2="-549.9" y2="1078.7"/>
	<line class="st1" x1="-555.1" y1="1064.9" x2="-559.4" y2="1069.2"/>
	<line class="st1" x1="-593" y1="1027" x2="-597.3" y2="1031.3"/>
	<line class="st1" x1="-602.5" y1="1017.5" x2="-609.4" y2="1024.5"/>
	<line class="st1" x1="-612" y1="1008" x2="-616.3" y2="1012.3"/>
	<line class="st1" x1="-545.6" y1="1074.4" x2="-552.6" y2="1081.3"/>
	<line class="st1" x1="-554.8" y1="1114.1" x2="-585.1" y2="1082.2"/>
</g>
<g>
	<line class="st2" x1="-562.2" y1="1025.8" x2="-596.4" y2="1060"/>
	<line class="st2" x1="-587.4" y1="1069" x2="-553.2" y2="1034.8"/>
	<polygon class="st2" points="-603.5,1063.7 -634.2,1094.2 -639.6,1096 -641.4,1097.8 -625.2,1114 -623.4,1112.2 -621.6,1106.8 
		-591,1076.2 -587.3,1069.1 -596.3,1060.1 	"/>
	<path class="st3" d="M-533.4,1043.8c-1.4-1.4,1.4-5.8-1.8-9c-5.5-5.5-11.4-6.3-17.9,0.1c-2.4-2.4-9-9-9-9s7.2-10.9,2.9-15.2
		c-8.5-8.5-21-9.7-26.8-10.3c0,0-0.3-3-0.3-4.3c16.6-3.3,33.7-3.9,43.9,6.3l12.6,12.6c3.1,3.1,0.7,7.9,3.6,10.8
		c3.6,3.6,7.2,0,10.8,3.6l3.6,3.6l-16.2,16.2L-533.4,1043.8z"/>
</g>
<circle class="st4" cx="1060" cy="1052.6" r="107.9"/>
<circle class="st5" cx="1495.4" cy="1052.6" r="107.9"/>
<g id="_x31_7_1_">
	<polyline class="st1" points="1564.5,1015.5 1564.5,1099.3 1427.2,1099.3 1427.2,1004.3 1564.5,1004.3 	"/>
	<polyline class="st6" points="1513.9,1105.8 1513.9,1117.9 1477.9,1117.9 1477.9,1099.3 1513.9,1099.3 	"/>
	<line class="st6" x1="1465" y1="1117.9" x2="1526.8" y2="1117.9"/>
	<line class="st6" x1="1427.2" y1="1083.4" x2="1553.8" y2="1083.4"/>
	<polygon class="st7" points="1541.3,1068.4 1535.1,1062.2 1539.3,1058 1520.1,1052.6 1525.4,1071.9 1529.6,1067.7 1535.8,1073.9 	
		"/>
</g>
<g id="_x31_6_1_">
	<polyline class="st1" points="1039.4,1025.8 1000,1104.5 969.6,1089.3 1018.6,991.4 1049,1006.6 1039.4,1025.8 	"/>
	<line class="st1" x1="1009.6" y1="1009.4" x2="1040" y2="1024.6"/>
	<line class="st1" x1="1004.2" y1="1020.2" x2="1034.6" y2="1035.4"/>
	<line class="st1" x1="986.5" y1="1080.8" x2="996.7" y2="1085.8"/>
	<polyline class="st1" points="1135.3,1071.6 1135.3,1105.6 1025.8,1105.6 1025.8,1071.6 1036.4,1071.6 	"/>
	<line class="st1" x1="1115.2" y1="1071.6" x2="1115.2" y2="1105.6"/>
	<line class="st1" x1="1103.1" y1="1071.6" x2="1103.1" y2="1105.6"/>
	<line class="st1" x1="1041.1" y1="1081.3" x2="1041.1" y2="1095.9"/>
	<polyline class="st1" points="1145.8,1050.9 1145.8,1071.6 1078.3,1071.6 	"/>
	<polyline class="st1" points="1061.5,1071.6 1036.4,1071.6 1036.4,1037.7 1145.8,1037.7 	"/>
	<line class="st1" x1="1051.6" y1="1047.4" x2="1051.6" y2="1061.9"/>
</g>
<g id="_x31_2_1_">
	<g>
		<path class="st7" d="M999,1079.5c-0.9,0-1.7-0.7-2.4-2.2l-0.2-0.5l0.9-0.4l0.2,0.5c0.5,1,1,1.6,1.4,1.6s1.1-0.6,1.7-2.4l0.2-0.5
			l1,0.3l-0.2,0.5C1000.8,1078.9,999.7,1079.5,999,1079.5z"/>
	</g>
	<g>
		<path class="st7" d="M996.1,1076l-0.1-0.5c-0.2-0.8-0.4-1.8-0.6-2.8c-0.2-1.1-0.3-2.2-0.3-3.4c0-0.7,0-1.3,0-2s0-1.3,0.1-2
			c0.1-1.2,0.2-2.3,0.3-3.4c0.3-2,1.3-6.8,3.6-6.8s3.3,4.7,3.6,6.8c0.3,1.7,0.4,3.5,0.4,5.4c0,0.7,0,1.3,0,2
			c-0.1,1.2-0.2,2.3-0.3,3.4c-0.1,0.6-0.2,1.3-0.3,1.8l-0.1,0.5l-1-0.2l0.1-0.5c0.1-0.5,0.2-1.1,0.3-1.7c0.2-1,0.3-2.2,0.3-3.3
			c0-0.6,0-1.3,0-1.9c0-1.9-0.1-3.6-0.4-5.2c-0.6-3.9-1.7-5.9-2.6-5.9c-0.8,0-2,2-2.6,5.9c-0.2,1-0.3,2.2-0.3,3.3
			c0,0.6-0.1,1.3-0.1,1.9s0,1.3,0,1.9c0.1,1.1,0.2,2.3,0.3,3.3c0.2,1,0.3,1.9,0.6,2.7l0.1,0.5L996.1,1076z"/>
	</g>
	<g>
		<path class="st7" d="M989.8,1065.2l-0.3-0.4c-1.2-1.5-1.5-2.7-1-3.5c0.3-0.6,1.2-1.2,3.6-0.9l0.5,0.1l-0.2,1l-0.5-0.1
			c-1.3-0.2-2.3-0.1-2.5,0.4c-0.2,0.4,0.1,1.3,0.9,2.4l0.3,0.4L989.8,1065.2z"/>
	</g>
	<g>
		<path class="st7" d="M1007.2,1074.4c-1.8,0-4.1-0.8-5.3-1.3c-1-0.4-2.1-0.9-3.1-1.4c-0.6-0.3-1.2-0.6-1.8-1s-1.2-0.7-1.7-1
			c-1-0.6-1.9-1.3-2.8-2c-0.6-0.5-1.2-1-1.7-1.5l-0.4-0.4l0.7-0.7l0.4,0.4c0.5,0.5,1.1,1,1.7,1.5c0.8,0.7,1.7,1.3,2.7,1.9
			c0.5,0.3,1,0.7,1.7,1c0.6,0.3,1.1,0.6,1.7,0.9c1,0.5,2,1,3,1.4c3.6,1.4,6,1.4,6.4,0.7c0.6-1-1.6-3.8-6.1-6.8l-0.4-0.3l0.6-0.9
			l0.4,0.3c3.7,2.5,7.6,6.1,6.4,8.2C1009.1,1074.1,1008.2,1074.4,1007.2,1074.4z"/>
	</g>
	<g>
		<path class="st7" d="M1000.9,1065l-0.4-0.3c-2.3-1.3-4.6-2.4-6.6-3l-0.5-0.1l0.3-1l0.5,0.1c2.1,0.6,4.5,1.7,6.9,3.1l0.4,0.3
			L1000.9,1065z"/>
	</g>
	<g>
		<path class="st7" d="M990.8,1074.4c-1,0-1.9-0.3-2.3-1c-1.2-2,2.5-5.2,4.1-6.5c0.8-0.7,1.8-1.3,2.8-2c0.5-0.3,1.1-0.7,1.7-1
			c0.6-0.3,1.1-0.6,1.8-1c1.1-0.6,2.1-1,3.1-1.4c0.7-0.3,1.5-0.5,2.1-0.7l0.5-0.1l0.3,1l-0.5,0.1c-0.7,0.2-1.4,0.4-2.1,0.7
			c-1,0.4-2,0.8-3,1.4c-0.6,0.3-1.2,0.6-1.7,0.9c-0.6,0.3-1.1,0.7-1.7,1c-1,0.6-1.9,1.3-2.7,1.9c-3,2.4-4.2,4.4-3.8,5.2
			c0.4,0.7,2.7,0.7,6.4-0.7c1-0.4,2-0.8,3-1.4c0.6-0.3,1.2-0.6,1.7-0.9s1.1-0.7,1.7-1c0.9-0.6,1.8-1.2,2.6-1.8l0.4-0.3l0.6,0.8
			l-0.4,0.3c-0.8,0.7-1.7,1.3-2.7,1.9c-0.6,0.4-1.1,0.7-1.7,1c-0.5,0.3-1.1,0.6-1.7,1c-1.1,0.5-2.1,1-3.1,1.4
			C994.9,1073.6,992.6,1074.4,990.8,1074.4z"/>
	</g>
	<g>
		<path class="st7" d="M1006.4,1066.9l-0.7-0.8l0.4-0.4c2.2-2,2.8-3.5,2.5-4c-0.3-0.4-1.2-0.6-2.5-0.4l-0.5,0.1l-0.2-1l0.5-0.1
			c2.3-0.4,3.2,0.3,3.6,0.9c0.7,1.2-0.3,3.1-2.7,5.3L1006.4,1066.9z"/>
	</g>
	<g>
		<path class="st7" d="M999,1069.1c-1,0-1.8-0.8-1.8-1.8s0.8-1.8,1.8-1.8s1.8,0.8,1.8,1.8C1000.7,1068.3,999.9,1069.1,999,1069.1z
			 M999,1066.6c-0.4,0-0.7,0.3-0.7,0.7c0,0.4,0.3,0.7,0.7,0.7s0.7-0.3,0.7-0.7S999.4,1066.6,999,1066.6z"/>
	</g>
	<g>
		<path class="st7" d="M1005.1,1062.6c-0.8,0-1.5-0.7-1.5-1.5s0.7-1.5,1.5-1.5s1.5,0.7,1.5,1.5S1005.9,1062.6,1005.1,1062.6z
			 M1005.1,1060.7c-0.2,0-0.4,0.2-0.4,0.4c0,0.2,0.2,0.4,0.4,0.4s0.4-0.2,0.4-0.4C1005.5,1060.9,1005.3,1060.7,1005.1,1060.7z"/>
	</g>
	<g>
		<path class="st7" d="M990.4,1066.7c-0.8,0-1.5-0.7-1.5-1.5s0.7-1.5,1.5-1.5s1.5,0.7,1.5,1.5C991.8,1066,991.2,1066.7,990.4,1066.7
			z M990.4,1064.8c-0.2,0-0.4,0.2-0.4,0.4c0,0.2,0.2,0.4,0.4,0.4s0.4-0.2,0.4-0.4C990.8,1065,990.6,1064.8,990.4,1064.8z"/>
	</g>
	<g>
		<path class="st7" d="M1001.6,1076.8c-0.8,0-1.5-0.7-1.5-1.5s0.7-1.5,1.5-1.5s1.5,0.7,1.5,1.5
			C1003,1076.2,1002.4,1076.8,1001.6,1076.8z M1001.6,1074.9c-0.2,0-0.4,0.2-0.4,0.4c0,0.2,0.2,0.4,0.4,0.4s0.4-0.2,0.4-0.4
			S1001.8,1074.9,1001.6,1074.9z"/>
	</g>
</g>
<line class="st6" x1="1450.2" y1="1072.5" x2="1482.3" y2="1038.4"/>
<line class="st6" x1="1500.3" y1="1054.4" x2="1480.3" y2="1036.4"/>
<line class="st6" x1="1534.7" y1="1016.2" x2="1498.5" y2="1056.4"/>
<rect x="1103" y="1072.1" class="st7" width="13.2" height="32.7"/>
<g id="vgPQcV.tif">
	<g>
		<g>
			<path d="M1136.8,1059.9c-2.2-1.2-3.6-1.4-5,1.2c-1.5,2.9-6.2,2.7-7.7-0.3c-0.9-1.8-2.1-2.3-3.8-2.9c-1.2-0.4-2.4-1.7-2.9-2.9
				c-0.5-1.3,0.3-2.3,2.2-1.6c-0.2,0.7-0.4,1.4-0.7,2.5c1.3,0.3,2.4,0.5,3.8,0.8c0-1.5,0-2.5,0-3.8c-2-1.1-5.6-0.7-5.3-4.5
				c0-0.5,1.2-0.9,1.8-1.3c0.2,0.2,0.3,0.3,0.5,0.5c-0.3,0.7-0.5,1.4-0.8,2.3c2.2,0.9,3.9,1.6,5.4-1.1c1.7-2.9,6-2.5,7.7,0.4
				c0.8,1.5,1.9,2,3.3,2.6c1.2,0.5,2.5,1.7,2.9,2.9c0.6,1.5-0.4,2.1-2.1,1.4c0.3-0.7,0.5-1.3,0.8-2.2c-1.2-0.3-2.3-0.6-3.6-0.9
				c0,1.5,0,2.7,0,3.8c2,1.1,5.3,0.9,4.9,4.4c0,0.4-1,0.8-1.6,1.2c-0.2-0.2-0.3-0.3-0.5-0.5
				C1136.4,1061.4,1136.6,1060.7,1136.8,1059.9z M1131.8,1053.2c-2.6,0-4.9,0-7.4,0c0,1.2,0,2.3,0,3.4c2.6,0,5,0,7.4,0
				C1131.8,1055.4,1131.8,1054.5,1131.8,1053.2z M1125.1,1059c-0.1,0.3-0.2,0.5-0.3,0.8c1.2,0.6,2.3,1.6,3.5,1.6c1,0,2-1.2,3.1-1.8
				c-0.1-0.2-0.3-0.4-0.4-0.6C1129,1059,1127.1,1059,1125.1,1059z M1124.8,1050.8c2.4,0,4.2,0,6.1,0
				C1129.1,1047.8,1127.5,1047.7,1124.8,1050.8z"/>
			<path class="st8" d="M1131.8,1053.2c0,1.3,0,2.2,0,3.4c-2.4,0-4.8,0-7.4,0c0-1.1,0-2.2,0-3.4
				C1126.9,1053.2,1129.2,1053.2,1131.8,1053.2z"/>
			<path class="st8" d="M1125.1,1059c1.9,0,3.9,0,5.8,0c0.1,0.2,0.3,0.4,0.4,0.6c-1,0.6-2,1.8-3.1,1.8c-1.2,0-2.3-1-3.5-1.6
				C1124.9,1059.6,1125,1059.3,1125.1,1059z"/>
			<path class="st8" d="M1124.8,1050.8c2.6-3.1,4.3-3,6.1,0C1129.1,1050.8,1127.2,1050.8,1124.8,1050.8z"/>
		</g>
	</g>
</g>
<circle class="st0" cx="247.9" cy="219.7" r="107.9"/>
<circle class="st0" cx="229.6" cy="1060.7" r="107.9"/>
<circle class="st5" cx="663.4" cy="1060.7" r="107.9"/>
<g id="bandwidth_1_">
	<path class="st9" d="M675.9,1036.7c-6-5.3-13.8-8.5-22.4-8.5c-18.7,0-33.9,15.2-33.9,33.9h-6.8c0-29,23.5-52.6,52.6-52.6
		s52.6,23.5,52.6,52.6h-20.4"/>
	<path class="st10" d="M666.6,1099.1c-7.3,7.3-19.1,7.3-26.4,0c-7.3-7.3-7.3-19.1,0-26.4s57.3-36,57.3-36S673.9,1091.9,666.6,1099.1
		z"/>
	<circle class="st11" cx="653.4" cy="1085.9" r="8.5"/>
</g>
<g>
	<path class="st10" d="M203.3,1103.8c-3.1,0-3.9-1-3.9-2.6v-4.3c0-1.5,0.8-2.6,3.9-2.6c3.1,0,3.9,1.1,3.9,2.6v4.3
		C207.2,1102.7,206.4,1103.8,203.3,1103.8z M203.3,1101.3c0.9,0,1-0.3,1-0.6v-3.4c0-0.3-0.1-0.6-1-0.6s-1,0.3-1,0.6v3.4
		C202.3,1101,202.4,1101.3,203.3,1101.3z"/>
	<path class="st10" d="M210.1,1103.6c-0.3,0-0.5-0.1-0.5-0.5v-1.5c0-0.3,0.1-0.5,0.5-0.5h1.4v-4.2h-1.2c-0.3,0-0.5-0.1-0.5-0.5v-1.5
		c0-0.3,0.1-0.5,0.5-0.5h3.7c0.3,0,0.5,0.1,0.5,0.5v6.2h1.2c0.3,0,0.5,0.1,0.5,0.5v1.5c0,0.3-0.1,0.5-0.5,0.5H210.1z"/>
	<path class="st10" d="M222.4,1103.8c-3.1,0-3.9-1-3.9-2.6v-4.3c0-1.5,0.8-2.6,3.9-2.6c3.1,0,3.9,1.1,3.9,2.6v4.3
		C226.3,1102.7,225.6,1103.8,222.4,1103.8z M222.4,1101.3c0.9,0,1-0.3,1-0.6v-3.4c0-0.3-0.1-0.6-1-0.6s-1,0.3-1,0.6v3.4
		C221.4,1101,221.6,1101.3,222.4,1101.3z"/>
	<path class="st10" d="M229.3,1103.6c-0.3,0-0.5-0.1-0.5-0.5v-1.5c0-0.3,0.1-0.5,0.5-0.5h1.4v-4.2h-1.2c-0.3,0-0.5-0.1-0.5-0.5v-1.5
		c0-0.3,0.1-0.5,0.5-0.5h3.7c0.3,0,0.5,0.1,0.5,0.5v6.2h1.2c0.3,0,0.5,0.1,0.5,0.5v1.5c0,0.3-0.1,0.5-0.5,0.5H229.3z"/>
	<path class="st10" d="M241.6,1103.8c-3.1,0-3.9-1-3.9-2.6v-4.3c0-1.5,0.8-2.6,3.9-2.6c3.1,0,3.9,1.1,3.9,2.6v4.3
		C245.4,1102.7,244.7,1103.8,241.6,1103.8z M241.6,1101.3c0.9,0,1-0.3,1-0.6v-3.4c0-0.3-0.1-0.6-1-0.6s-1,0.3-1,0.6v3.4
		C240.6,1101,240.7,1101.3,241.6,1101.3z"/>
	<path class="st10" d="M248.4,1103.6c-0.3,0-0.5-0.1-0.5-0.5v-1.5c0-0.3,0.1-0.5,0.5-0.5h1.4v-4.2h-1.2c-0.3,0-0.5-0.1-0.5-0.5v-1.5
		c0-0.3,0.1-0.5,0.5-0.5h3.7c0.3,0,0.5,0.1,0.5,0.5v6.2h1.2c0.3,0,0.5,0.1,0.5,0.5v1.5c0,0.3-0.1,0.5-0.5,0.5H248.4z"/>
	<path class="st10" d="M260.7,1103.8c-3.1,0-3.9-1-3.9-2.6v-4.3c0-1.5,0.8-2.6,3.9-2.6s3.9,1.1,3.9,2.6v4.3
		C264.6,1102.7,263.8,1103.8,260.7,1103.8z M260.7,1101.3c0.9,0,1-0.3,1-0.6v-3.4c0-0.3-0.1-0.6-1-0.6s-1,0.3-1,0.6v3.4
		C259.7,1101,259.9,1101.3,260.7,1101.3z"/>
</g>
<path class="st12" d="M273,1116.6h-86.3c-4.4,0-8-3.6-8-8v-52.5c0-4.4,3.6-8,8-8H273c4.4,0,8,3.6,8,8v52.5
	C280.9,1113,277.4,1116.6,273,1116.6z"/>
<path class="st13" d="M255,1037.9v10.7h-51.2v-10.7c0-4,3.3-7.4,7.3-7.5c0.2,1.6,0.5,2.9,0.8,4c0.1,2.8,2.4,5.1,5.2,5.1
	c0.9,0,1.7-0.2,2.4-0.6c0.9,1.5,2.6,2.4,4.4,2.4c0.8,0,1.6-0.2,2.2-0.5c1,1.1,2.4,1.8,4,1.8c0.8,0,1.5-0.2,2.2-0.5s1.3-0.8,1.7-1.3
	c0.8,1.8,2.7,3.1,4.8,3.1c1.4,0,2.8-0.6,3.7-1.5c0.9-1,1.5-2.3,1.5-3.7v-8.3h3.4c1.3,0.1,2.4,0.3,3.4,0.8l0,0
	C253.4,1032.5,255,1035,255,1037.9z"/>
<path class="st14" d="M211.8,1033.9c0.1,2.8,2.4,5.1,5.2,5.1c0.9,0,1.7-0.2,2.4-0.6c0.9,1.5,2.6,2.4,4.4,2.4c0.8,0,1.6-0.2,2.2-0.5
	c1,1.1,2.4,1.8,4,1.8c0.8,0,1.5-0.2,2.2-0.5s1.3-0.8,1.7-1.3c0.8,1.8,2.7,3.1,4.8,3.1c1.4,0,2.8-0.6,3.7-1.5c0.9-1,1.5-2.3,1.5-3.7
	v-8.5c0.2,0.1,3.8,1.2,6.8,1.1l0,0c2.5-0.3,4.5-1.5,5.6-3.1c0.4-0.5,0.6-1.1,0.7-1.7c0.2-1.2-0.3-2.4-1.5-3
	c-7.2-3.9-11.8-9.9-14.2-13.7h0.3c0.9,0,1.7-0.7,1.7-1.7v-5.4c0-0.9-0.7-1.7-1.7-1.7h-27.5c-0.9,0-1.7,0.7-1.7,1.7v5.4
	c0,0.9,0.7,1.7,1.7,1.7h0.4c-0.3,1.9-0.9,3.9-1.6,6c-1.3,3.5-1.9,6.7-2,9.5c-0.1,1.9-0.1,3.7,0.1,5.2
	C211.2,1031.4,211.5,1032.8,211.8,1033.9z"/>
<path class="st14" d="M235.7,1082.2h-11.8c-1.7,0-3.2-1.4-3.2-3.2v-2.4c0-1.7,1.4-3.2,3.2-3.2h11.8c1.7,0,3.2,1.4,3.2,3.2v2.4
	C238.8,1080.8,237.4,1082.2,235.7,1082.2z"/>
<line class="st14" x1="221.6" y1="1078.1" x2="178.1" y2="1058.7"/>
<line class="st14" x1="239.7" y1="1077.3" x2="280.3" y2="1058"/>
<path class="st12" d="M238.5,1008.2h-22.3c-2.2,0-3.9-1.8-3.9-3.9l0,0c0-2.2,1.8-3.9,3.9-3.9h22.3c2.2,0,3.9,1.8,3.9,3.9l0,0
	C242.4,1006.5,240.7,1008.2,238.5,1008.2z"/>
<path class="st10" d="M237.9,1008.4h-21.3c-2.2,0-3.9-1.8-3.9-3.9l0,0c0-2.2,1.8-3.9,3.9-3.9h21.3c2.2,0,3.9,1.8,3.9,3.9l0,0
	C241.8,1006.7,240,1008.4,237.9,1008.4z"/>
<g>
	<g>
		<g>
			<polygon class="st10" points="305.5,250.6 205.5,250.6 205.8,173 241.9,172.5 242,172.6 253.7,186.6 305.1,186.5 305.1,187.2 
				253.4,187.2 253.3,187.1 241.6,173.2 206.5,173.7 206.2,249.9 305.5,249.9 			"/>
		</g>
		<g>
			
				<rect x="304.8" y="186.5" transform="matrix(1 -3.714888e-03 3.714888e-03 1 -0.8091 1.1349)" class="st10" width="0.7" height="63.7"/>
		</g>
	</g>
	<g>
		<g>
			<polyline class="st8" points="297.7,194.3 246.2,194.3 234.4,180.3 198.8,180.8 198.5,257.6 298.1,257.6 			"/>
			<polygon class="st10" points="298.1,258 198.2,258 198.5,180.5 234.5,179.9 234.6,180.1 246.3,194 297.7,193.9 297.7,194.6 
				246,194.6 245.9,194.5 234.2,180.6 199.1,181.1 198.8,257.3 298.1,257.3 			"/>
		</g>
		<g>
			<line class="st8" x1="297.6" y1="193.9" x2="297.8" y2="257.6"/>
			
				<rect x="297.4" y="193.9" transform="matrix(1 -3.714888e-03 3.714888e-03 1 -0.8367 1.1075)" class="st10" width="0.7" height="63.7"/>
		</g>
	</g>
	<g>
		<polyline class="st10" points="289.9,201.2 238.3,201.2 226.5,187.2 190.9,187.7 190.6,264.5 290.3,264.5 		"/>
	</g>
</g>
</svg>
