<?xml version="1.0" encoding="utf-8"?>
<!-- Generator: Adobe Illustrator 23.1.1, SVG Export Plug-In . SVG Version: 6.00 Build 0)  -->
<svg version="1.1" id="Layer_1" xmlns="http://www.w3.org/2000/svg" xmlns:xlink="http://www.w3.org/1999/xlink" x="0px" y="0px"
	 viewBox="0 0 481.7 424.8" style="enable-background:new 0 0 481.7 424.8;" xml:space="preserve">
<style type="text/css">
	.st0{fill:#464646;}
	.st1{fill:#FFFFFF;}
	.st2{fill:none;}
	.st3{opacity:5.000000e-02;fill:#009AB7;enable-background:new    ;}
</style>
<g>
	<g>
		<g>
			<polygon class="st0" points="305.5,250.6 205.5,250.6 205.8,173 241.9,172.5 242,172.6 253.7,186.6 305.1,186.5 305.1,187.2 
				253.4,187.2 253.3,187.1 241.6,173.2 206.5,173.7 206.2,249.9 305.5,249.9 			"/>
		</g>
		<g>
			
				<rect x="304.8" y="186.5" transform="matrix(1 -3.714862e-03 3.714862e-03 1 -0.809 1.1351)" class="st0" width="0.7" height="63.7"/>
		</g>
	</g>
	<g>
		<g>
			<polyline class="st1" points="297.7,194.3 246.2,194.3 234.4,180.3 198.8,180.8 198.5,257.6 298.1,257.6 			"/>
			<polygon class="st0" points="298.1,258 198.2,258 198.5,180.5 234.5,179.9 234.6,180.1 246.3,194 297.7,193.9 297.7,194.6 
				246,194.6 245.9,194.5 234.2,180.6 199.1,181.1 198.8,257.3 298.1,257.3 			"/>
		</g>
		<g>
			<line class="st2" x1="297.6" y1="193.9" x2="297.8" y2="257.6"/>
			
				<rect x="297.4" y="193.9" transform="matrix(1 -3.714862e-03 3.714862e-03 1 -0.8366 1.1077)" class="st0" width="0.7" height="63.7"/>
		</g>
	</g>
	<g>
		<polyline class="st0" points="289.9,201.2 238.3,201.2 226.5,187.2 190.9,187.7 190.6,264.5 290.3,264.5 		"/>
	</g>
</g>
<circle class="st3" cx="247" cy="217.6" r="107.9"/>
</svg>
