<?xml version="1.0" encoding="utf-8"?>
<!-- Generator: Adobe Illustrator 23.1.0, SVG Export Plug-In . SVG Version: 6.00 Build 0)  -->
<svg version="1.1" id="Layer_1" xmlns="http://www.w3.org/2000/svg" xmlns:xlink="http://www.w3.org/1999/xlink" x="0px" y="0px"
	 viewBox="0 0 425 425" style="enable-background:new 0 0 425 425;" xml:space="preserve">
<style type="text/css">
	.st0{fill:#464646;}
	.st1{fill:#FFFFFF;}
	.st2{fill:none;}
	.st3{opacity:5.000000e-02;fill:#009AB7;enable-background:new    ;}
</style>
<g>
	<g>
		<g>
			<polygon class="st0" points="316.9,271.4 138.5,271.4 139,132.9 203.4,132 203.6,132.2 224.5,157.2 316.2,157 316.2,158.3 
				223.9,158.3 223.7,158.1 202.9,133.3 140.2,134.2 139.7,270.1 316.9,270.1 			"/>
		</g>
		<g>
			
				<rect x="315.6" y="157" transform="matrix(1 -3.714836e-03 3.714836e-03 1 -0.7922 1.1763)" class="st0" width="1.2" height="113.6"/>
		</g>
	</g>
	<g>
		<g>
			<polyline class="st1" points="303,170.9 211.1,170.9 190,146 126.5,146.8 126,283.9 303.7,283.9 			"/>
			<polygon class="st0" points="303.7,284.6 125.4,284.6 126,146.3 190.2,145.2 190.4,145.6 211.3,170.4 303,170.2 303,171.5 
				210.7,171.5 210.5,171.3 189.7,146.5 127,147.4 126.5,283.3 303.7,283.3 			"/>
		</g>
		<g>
			<line class="st2" x1="302.8" y1="170.2" x2="303.1" y2="283.9"/>
			
				<rect x="302.4" y="170.2" transform="matrix(1 -3.714836e-03 3.714836e-03 1 -0.8413 1.1273)" class="st0" width="1.2" height="113.6"/>
		</g>
	</g>
	<g>
		<polyline class="st0" points="289,183.2 197,183.2 175.9,158.3 112.4,159.2 111.9,296.2 289.7,296.2 		"/>
	</g>
</g>
<circle class="st3" cx="212.5" cy="212.5" r="192.5"/>
</svg>
