<?xml version="1.0" encoding="UTF-8"?>
<svg id="Layer_1" xmlns="http://www.w3.org/2000/svg" version="1.1" viewBox="0 0 409.9 407.9">
  <!-- Generator: Adobe Illustrator 30.1.0, SVG Export Plug-In . SVG Version: 2.1.1 Build 136)  -->
  <defs>
    <style>
      .st0 {
        fill: none;
      }

      .st1 {
        fill: #231f20;
      }
    </style>
  </defs>
  <g>
    <path class="st1" d="M79.2,208.3c0,66.2,51.9,115,119.1,115.6h77.9l56.3-55.5h-134.2c-34.7-.3-63.4-28.9-63.4-63.2v-19.8l-.2-173.4h-55.5v185s0,8.4,0,11.4Z"/>
    <path class="st1" d="M144.3,204.9c0-.9,0,.9,0,0h0Z"/>
    <path class="st1" d="M14.6,207.3c0,.3,0,.5,0,.8,0,99.2,81.6,179.6,182.2,179.6s1.3,0,2,0h12.8l55.5-54.8h-70.5c-69.9,0-127-53.3-127-122.2V12H14.5v195.3h0Z"/>
    <path class="st1" d="M199.9,12h-55.5v192.9c0,30.3,24.8,54.8,55.5,54.8s.5,0,.8,0h0s140.6,0,140.6,0l56.3-55.6h-2.6s-195-.3-195-.3V12Z"/>
  </g>
  <polyline class="st0" points="312.9 287.8 401.2 200.6 417.8 184.1"/>
</svg>