<?xml version="1.0" encoding="UTF-8"?>
<svg id="Layer_1" xmlns="http://www.w3.org/2000/svg" version="1.1" viewBox="0 0 406.1 401.6">
  <!-- Generator: Adobe Illustrator 30.1.0, SVG Export Plug-In . SVG Version: 2.1.1 Build 136)  -->
  <defs>
    <style>
      .st0 {
        fill: #0032a1;
      }
    </style>
  </defs>
  <path class="st0" d="M76.9,206.3c0,66.2,51.9,115,119.1,115.6h77.9l56.3-55.5h-134.2c-34.7-.3-63.4-28.9-63.4-63.2v-19.8l-.2-173.4h-55.5v185s0,8.4,0,11.4Z"/>
  <path class="st0" d="M142.1,202.8c0-.9,0,.9,0,0h0Z"/>
  <path class="st0" d="M12.3,205.2c0,.3,0,.5,0,.8,0,99.2,81.6,179.6,182.2,179.6s1.3,0,2,0h12.8l55.5-54.8h-70.5c-69.9,0-127-53.3-127-122.2V9.9H12.3v195.3h0Z"/>
  <path class="st0" d="M197.7,9.9h-55.5v192.9c0,30.3,24.8,54.8,55.5,54.8s.5,0,.8,0h0s140.6,0,140.6,0l56.3-55.6h-2.6s-195-.3-195-.3V9.9Z"/>
</svg>