<svg id="Layer_1" data-name="Layer 1" xmlns="http://www.w3.org/2000/svg" viewBox="0 0 425 425">
  <defs>
    <style>
      .cls-1 {
        fill: #0da6a1;
        opacity: 0.05;
      }

      .cls-2 {
        fill: #464646;
      }
    </style>
  </defs>
  <circle class="cls-1" cx="212" cy="212" r="207.5"/>
  <g>
    <path class="cls-2" d="M211.94,96.61c-7.38,0-13.62,8-18,23-.13.45-.26.9-.38,1.35a52.3,52.3,0,0,1,8.92-2.49c3.73-11,7.65-14.1,9.49-14.1s5.77,3.07,9.5,14.1a52,52,0,0,1,8.92,2.49c-.12-.45-.25-.9-.38-1.35-4.41-15.07-10.64-23-18-23Z"/>
    <path class="cls-2" d="M259.28,217.46c5.34,0,9.24-1.57,11.55-4.71,4.37-6,1.62-15.7-7.93-28.17-.29-.37-.57-.74-.87-1.11a51.94,51.94,0,0,1-3.25,8.68c6.69,9.52,6.85,14.49,5.75,16s-5.88,2.84-17-.68a51.71,51.71,0,0,1-7.28,5.73l1.32.49c7,2.53,12.91,3.79,17.7,3.79Z"/>
    <path class="cls-2" d="M270.83,126.46c-4.37-6-14.48-6.28-29.25-.93l-1.32.5a53,53,0,0,1,7.28,5.72,40.26,40.26,0,0,1,11.71-2.22c3.07,0,4.7.75,5.28,1.55,1.1,1.49.94,6.45-5.75,16a52.87,52.87,0,0,1,3.26,8.68l.86-1.11c9.55-12.47,12.3-22.21,7.93-28.17Z"/>
    <path class="cls-2" d="M211.94,234.79c-1.84,0-5.76-3.06-9.49-14.09a52.3,52.3,0,0,1-8.92-2.49c.12.45.25.9.38,1.35,4.41,15.07,10.65,23,18,23s13.63-8,18-23c.13-.45.26-.9.38-1.35a52,52,0,0,1-8.92,2.49c-3.73,11-7.65,14.09-9.5,14.09Z"/>
    <path class="cls-2" d="M176.35,131.75a52.39,52.39,0,0,1,7.28-5.72l-1.32-.5c-14.77-5.35-24.88-5-29.25.93s-1.62,15.7,7.93,28.17l.86,1.11a52,52,0,0,1,3.27-8.68c-6.69-9.53-6.85-14.49-5.76-16s5.88-2.84,17,.67Z"/>
    <path class="cls-2" d="M164.61,217.46c4.79,0,10.72-1.26,17.7-3.79l1.32-.49a51.71,51.71,0,0,1-7.28-5.73c-11.11,3.52-15.9,2.17-17,.68s-.93-6.46,5.76-16a51.11,51.11,0,0,1-3.26-8.68q-.45.56-.87,1.11c-9.55,12.47-12.29,22.2-7.93,28.17,2.31,3.14,6.21,4.71,11.55,4.71Z"/>
    <polygon class="cls-2" points="212.83 168.2 250.43 179.8 237.26 142.17 201.14 130.88 212.83 168.2 212.83 168.2"/>
    <polygon class="cls-2" points="196.07 132.21 170.98 157.29 183.08 194.41 207.9 169.59 196.07 132.21 196.07 132.21"/>
    <polygon class="cls-2" points="211.45 173.13 186.68 197.9 224.66 209.14 248.83 184.97 211.45 173.13 211.45 173.13"/>
    <path class="cls-2" d="M237,289a1,1,0,0,0-1,1.3,2.75,2.75,0,0,1-2.63,3.54H187.5a2.75,2.75,0,0,1-2.64-3.54,1,1,0,0,0-1-1.3l-94.7.08L110,277.84,313,277.28l20.76,11.26L237,289Zm102.1-2.48-.42-.24-26.25-14.25V157c0-13.13-12-15.53-20.09-15.53l-.11,4.06c3.58,0,16.19-.76,16.19,12.49V261H115.73V158.05c0-12.12,13.35-11.18,15.8-11.18l.1-4.05c-9.32.1-20,1.08-20,14.21v115h0L85.36,286.31l-.42.24c-6.44,3.93-3.44,13.92,4.1,13.92H335c7.54,0,10.54-10,4.1-13.92Z"/>
  </g>
</svg>
