<?xml version="1.0" encoding="UTF-8" standalone="no"?>
<!-- Generator: Adobe Illustrator 23.0.4, SVG Export Plug-In . SVG Version: 6.00 Build 0)  -->

<svg
   xmlns:dc="http://purl.org/dc/elements/1.1/"
   xmlns:cc="http://creativecommons.org/ns#"
   xmlns:rdf="http://www.w3.org/1999/02/22-rdf-syntax-ns#"
   xmlns:svg="http://www.w3.org/2000/svg"
   xmlns="http://www.w3.org/2000/svg"
   xmlns:sodipodi="http://sodipodi.sourceforge.net/DTD/sodipodi-0.dtd"
   xmlns:inkscape="http://www.inkscape.org/namespaces/inkscape"
   version="1.1"
   id="Layer_1"
   x="0px"
   y="0px"
   viewBox="0 0 425 425"
   xml:space="preserve"
   sodipodi:docname="prox-app.svg"
   width="425"
   height="425"
   inkscape:version="0.92.4 (5da689c313, 2019-01-14)"><metadata
   id="metadata1809"><rdf:RDF><cc:Work
       rdf:about=""><dc:format>image/svg+xml</dc:format><dc:type
         rdf:resource="http://purl.org/dc/dcmitype/StillImage" /><dc:title /></cc:Work></rdf:RDF></metadata><defs
   id="defs1807" /><sodipodi:namedview
   pagecolor="#ffffff"
   bordercolor="#666666"
   borderopacity="1"
   objecttolerance="10"
   gridtolerance="10"
   guidetolerance="10"
   inkscape:pageopacity="0"
   inkscape:pageshadow="2"
   inkscape:window-width="1680"
   inkscape:window-height="1005"
   id="namedview1805"
   showgrid="false"
   inkscape:zoom="1.9576471"
   inkscape:cx="237.93509"
   inkscape:cy="192.06731"
   inkscape:window-x="0"
   inkscape:window-y="1"
   inkscape:window-maximized="1"
   inkscape:current-layer="Layer_1" />
<style
   type="text/css"
   id="style1583">
	.st0{opacity:5.000000e-02;fill:#0DA6A1;enable-background:new    ;}
	.st1{fill:none;stroke:#484751;stroke-width:2.6322;stroke-linecap:square;stroke-miterlimit:10;}
	.st2{fill:none;stroke:#505050;stroke-width:2;stroke-miterlimit:10;}
	.st3{fill:#505050;}
	.st4{opacity:5.000000e-02;fill:#009AB7;enable-background:new    ;}
	.st5{opacity:5.000000e-02;fill:#0099B9;enable-background:new    ;}
	.st6{fill:none;stroke:#484751;stroke-width:2.6322;stroke-miterlimit:10;}
	.st7{fill:#484751;}
	.st8{fill:#FFFFFF;}
	.st9{fill:none;stroke:#464646;stroke-width:2;stroke-linecap:round;stroke-linejoin:round;stroke-miterlimit:10;}
	.st10{fill:#464646;}
	.st11{fill:#FFFFFF;stroke:#464646;stroke-width:2;stroke-linecap:round;stroke-linejoin:round;stroke-miterlimit:10;}
	.st12{fill:none;stroke:#464646;stroke-width:4;stroke-miterlimit:10;}
	.st13{fill:none;stroke:#464646;stroke-width:2;stroke-miterlimit:10;}
	.st14{fill:none;stroke:#464646;stroke-width:3;stroke-miterlimit:10;}
	.st15{fill:#999999;}
	.st16{fill:#CCCCCC;}
	.st17{fill:none;stroke:#999999;stroke-width:2;stroke-linecap:square;stroke-linejoin:round;stroke-miterlimit:10;}
	.st18{fill:none;stroke:#464646;stroke-width:2;stroke-linecap:square;stroke-linejoin:round;stroke-miterlimit:10;}
</style>
<circle
   class="st0"
   cx="-583"
   cy="1052.5"
   r="107.9"
   id="circle1585"
   style="display:inline" />
<g
   id="_x39__1_">
	<line
   class="st1"
   x1="-603.20001"
   y1="1063.3"
   x2="-611.59998"
   y2="1054.5"
   id="line1587"
   style="fill:none;stroke:#484751;stroke-width:2.6322;stroke-linecap:square;stroke-miterlimit:10" />
	<polyline
   class="st1"
   points="-563.9,1055.4 -530,1089.3 -553.4,1112.7  "
   id="polyline1589"
   style="fill:none;stroke:#484751;stroke-width:2.6322;stroke-linecap:square;stroke-miterlimit:10" />
	<polyline
   class="st1"
   points="-613.2,1052.9 -645.5,1020.6 -622.1,997.2 -582.7,1036.6  "
   id="polyline1591"
   style="fill:none;stroke:#484751;stroke-width:2.6322;stroke-linecap:square;stroke-miterlimit:10" />
	<line
   class="st1"
   x1="-536.20001"
   y1="1083.9"
   x2="-540.5"
   y2="1088.1"
   id="line1593"
   style="fill:none;stroke:#484751;stroke-width:2.6322;stroke-linecap:square;stroke-miterlimit:10" />
	<line
   class="st1"
   x1="-545.59998"
   y1="1074.4"
   x2="-549.90002"
   y2="1078.7"
   id="line1595"
   style="fill:none;stroke:#484751;stroke-width:2.6322;stroke-linecap:square;stroke-miterlimit:10" />
	<line
   class="st1"
   x1="-555.09998"
   y1="1064.9"
   x2="-559.40002"
   y2="1069.2"
   id="line1597"
   style="fill:none;stroke:#484751;stroke-width:2.6322;stroke-linecap:square;stroke-miterlimit:10" />
	<line
   class="st1"
   x1="-593"
   y1="1027"
   x2="-597.29999"
   y2="1031.3"
   id="line1599"
   style="fill:none;stroke:#484751;stroke-width:2.6322;stroke-linecap:square;stroke-miterlimit:10" />
	<line
   class="st1"
   x1="-602.5"
   y1="1017.5"
   x2="-609.40002"
   y2="1024.5"
   id="line1601"
   style="fill:none;stroke:#484751;stroke-width:2.6322;stroke-linecap:square;stroke-miterlimit:10" />
	<line
   class="st1"
   x1="-612"
   y1="1008"
   x2="-616.29999"
   y2="1012.3"
   id="line1603"
   style="fill:none;stroke:#484751;stroke-width:2.6322;stroke-linecap:square;stroke-miterlimit:10" />
	<line
   class="st1"
   x1="-545.59998"
   y1="1074.4"
   x2="-552.59998"
   y2="1081.3"
   id="line1605"
   style="fill:none;stroke:#484751;stroke-width:2.6322;stroke-linecap:square;stroke-miterlimit:10" />
	<line
   class="st1"
   x1="-554.79999"
   y1="1114.1"
   x2="-585.09998"
   y2="1082.2"
   id="line1607"
   style="fill:none;stroke:#484751;stroke-width:2.6322;stroke-linecap:square;stroke-miterlimit:10" />
</g>
<g
   id="g1618">
	<line
   class="st2"
   x1="-562.20001"
   y1="1025.8"
   x2="-596.40002"
   y2="1060"
   id="line1610"
   style="fill:none;stroke:#505050;stroke-width:2;stroke-miterlimit:10" />
	<line
   class="st2"
   x1="-587.40002"
   y1="1069"
   x2="-553.20001"
   y2="1034.8"
   id="line1612"
   style="fill:none;stroke:#505050;stroke-width:2;stroke-miterlimit:10" />
	<polygon
   class="st2"
   points="-639.6,1096 -641.4,1097.8 -625.2,1114 -623.4,1112.2 -621.6,1106.8 -591,1076.2 -587.3,1069.1 -596.3,1060.1 -603.5,1063.7 -634.2,1094.2 "
   id="polygon1614"
   style="fill:none;stroke:#505050;stroke-width:2;stroke-miterlimit:10" />
	<path
   class="st3"
   d="m -533.4,1043.8 c -1.4,-1.4 1.4,-5.8 -1.8,-9 -5.5,-5.5 -11.4,-6.3 -17.9,0.1 -2.4,-2.4 -9,-9 -9,-9 0,0 7.2,-10.9 2.9,-15.2 -8.5,-8.5 -21,-9.7 -26.8,-10.3 0,0 -0.3,-3 -0.3,-4.3 16.6,-3.3 33.7,-3.9 43.9,6.3 l 12.6,12.6 c 3.1,3.1 0.7,7.9 3.6,10.8 3.6,3.6 7.2,0 10.8,3.6 l 3.6,3.6 -16.2,16.2 z"
   id="path1616"
   inkscape:connector-curvature="0"
   style="fill:#505050" />
</g>
<circle
   class="st4"
   cx="1060"
   cy="1052.6"
   r="107.9"
   id="circle1620"
   style="display:inline" />
<circle
   class="st5"
   cx="1495.4"
   cy="1052.6"
   r="107.9"
   id="circle1622" />
<g
   id="_x31_7_1_">
	<polyline
   class="st1"
   points="1564.5,1015.5 1564.5,1099.3 1427.2,1099.3 1427.2,1004.3 1564.5,1004.3  "
   id="polyline1624"
   style="fill:none;stroke:#484751;stroke-width:2.6322;stroke-linecap:square;stroke-miterlimit:10" />
	<polyline
   class="st6"
   points="1513.9,1105.8 1513.9,1117.9 1477.9,1117.9 1477.9,1099.3 1513.9,1099.3  "
   id="polyline1626"
   style="fill:none;stroke:#484751;stroke-width:2.6322;stroke-miterlimit:10" />
	<line
   class="st6"
   x1="1465"
   y1="1117.9"
   x2="1526.8"
   y2="1117.9"
   id="line1628"
   style="fill:none;stroke:#484751;stroke-width:2.6322;stroke-miterlimit:10" />
	<line
   class="st6"
   x1="1427.2"
   y1="1083.4"
   x2="1553.8"
   y2="1083.4"
   id="line1630"
   style="fill:none;stroke:#484751;stroke-width:2.6322;stroke-miterlimit:10" />
	<polygon
   class="st7"
   points="1539.3,1058 1520.1,1052.6 1525.4,1071.9 1529.6,1067.7 1535.8,1073.9 1541.3,1068.4 1535.1,1062.2 "
   id="polygon1632"
   style="fill:#484751" />
</g>
<g
   id="_x31_6_1_">
	<polyline
   class="st1"
   points="1039.4,1025.8 1000,1104.5 969.6,1089.3 1018.6,991.4 1049,1006.6 1039.4,1025.8  "
   id="polyline1635"
   style="fill:none;stroke:#484751;stroke-width:2.6322;stroke-linecap:square;stroke-miterlimit:10" />
	<line
   class="st1"
   x1="1009.6"
   y1="1009.4"
   x2="1040"
   y2="1024.6"
   id="line1637"
   style="fill:none;stroke:#484751;stroke-width:2.6322;stroke-linecap:square;stroke-miterlimit:10" />
	<line
   class="st1"
   x1="1004.2"
   y1="1020.2"
   x2="1034.6"
   y2="1035.4"
   id="line1639"
   style="fill:none;stroke:#484751;stroke-width:2.6322;stroke-linecap:square;stroke-miterlimit:10" />
	<line
   class="st1"
   x1="986.5"
   y1="1080.8"
   x2="996.70001"
   y2="1085.8"
   id="line1641"
   style="fill:none;stroke:#484751;stroke-width:2.6322;stroke-linecap:square;stroke-miterlimit:10" />
	<polyline
   class="st1"
   points="1135.3,1071.6 1135.3,1105.6 1025.8,1105.6 1025.8,1071.6 1036.4,1071.6  "
   id="polyline1643"
   style="fill:none;stroke:#484751;stroke-width:2.6322;stroke-linecap:square;stroke-miterlimit:10" />
	<line
   class="st1"
   x1="1115.2"
   y1="1071.6"
   x2="1115.2"
   y2="1105.6"
   id="line1645"
   style="fill:none;stroke:#484751;stroke-width:2.6322;stroke-linecap:square;stroke-miterlimit:10" />
	<line
   class="st1"
   x1="1103.1"
   y1="1071.6"
   x2="1103.1"
   y2="1105.6"
   id="line1647"
   style="fill:none;stroke:#484751;stroke-width:2.6322;stroke-linecap:square;stroke-miterlimit:10" />
	<line
   class="st1"
   x1="1041.1"
   y1="1081.3"
   x2="1041.1"
   y2="1095.9"
   id="line1649"
   style="fill:none;stroke:#484751;stroke-width:2.6322;stroke-linecap:square;stroke-miterlimit:10" />
	<polyline
   class="st1"
   points="1145.8,1050.9 1145.8,1071.6 1078.3,1071.6  "
   id="polyline1651"
   style="fill:none;stroke:#484751;stroke-width:2.6322;stroke-linecap:square;stroke-miterlimit:10" />
	<polyline
   class="st1"
   points="1061.5,1071.6 1036.4,1071.6 1036.4,1037.7 1145.8,1037.7  "
   id="polyline1653"
   style="fill:none;stroke:#484751;stroke-width:2.6322;stroke-linecap:square;stroke-miterlimit:10" />
	<line
   class="st1"
   x1="1051.6"
   y1="1047.4"
   x2="1051.6"
   y2="1061.9"
   id="line1655"
   style="fill:none;stroke:#484751;stroke-width:2.6322;stroke-linecap:square;stroke-miterlimit:10" />
</g>
<g
   id="_x31_2_1_">
	<g
   id="g1660">
		<path
   class="st7"
   d="m 999,1079.5 c -0.9,0 -1.7,-0.7 -2.4,-2.2 l -0.2,-0.5 0.9,-0.4 0.2,0.5 c 0.5,1 1,1.6 1.4,1.6 0.4,0 1.1,-0.6 1.7,-2.4 l 0.2,-0.5 1,0.3 -0.2,0.5 c -0.8,2.5 -1.9,3.1 -2.6,3.1 z"
   id="path1658"
   inkscape:connector-curvature="0"
   style="fill:#484751" />
	</g>
	<g
   id="g1664">
		<path
   class="st7"
   d="m 996.1,1076 -0.1,-0.5 c -0.2,-0.8 -0.4,-1.8 -0.6,-2.8 -0.2,-1.1 -0.3,-2.2 -0.3,-3.4 0,-0.7 0,-1.3 0,-2 0,-0.7 0,-1.3 0.1,-2 0.1,-1.2 0.2,-2.3 0.3,-3.4 0.3,-2 1.3,-6.8 3.6,-6.8 2.3,0 3.3,4.7 3.6,6.8 0.3,1.7 0.4,3.5 0.4,5.4 0,0.7 0,1.3 0,2 -0.1,1.2 -0.2,2.3 -0.3,3.4 -0.1,0.6 -0.2,1.3 -0.3,1.8 l -0.1,0.5 -1,-0.2 0.1,-0.5 c 0.1,-0.5 0.2,-1.1 0.3,-1.7 0.2,-1 0.3,-2.2 0.3,-3.3 0,-0.6 0,-1.3 0,-1.9 0,-1.9 -0.1,-3.6 -0.4,-5.2 -0.6,-3.9 -1.7,-5.9 -2.6,-5.9 -0.8,0 -2,2 -2.6,5.9 -0.2,1 -0.3,2.2 -0.3,3.3 0,0.6 -0.1,1.3 -0.1,1.9 0,0.6 0,1.3 0,1.9 0.1,1.1 0.2,2.3 0.3,3.3 0.2,1 0.3,1.9 0.6,2.7 l 0.1,0.5 z"
   id="path1662"
   inkscape:connector-curvature="0"
   style="fill:#484751" />
	</g>
	<g
   id="g1668">
		<path
   class="st7"
   d="m 989.8,1065.2 -0.3,-0.4 c -1.2,-1.5 -1.5,-2.7 -1,-3.5 0.3,-0.6 1.2,-1.2 3.6,-0.9 l 0.5,0.1 -0.2,1 -0.5,-0.1 c -1.3,-0.2 -2.3,-0.1 -2.5,0.4 -0.2,0.4 0.1,1.3 0.9,2.4 l 0.3,0.4 z"
   id="path1666"
   inkscape:connector-curvature="0"
   style="fill:#484751" />
	</g>
	<g
   id="g1672">
		<path
   class="st7"
   d="m 1007.2,1074.4 c -1.8,0 -4.1,-0.8 -5.3,-1.3 -1,-0.4 -2.1,-0.9 -3.1,-1.4 -0.6,-0.3 -1.2,-0.6 -1.8,-1 -0.6,-0.4 -1.2,-0.7 -1.7,-1 -1,-0.6 -1.9,-1.3 -2.8,-2 -0.6,-0.5 -1.2,-1 -1.7,-1.5 l -0.4,-0.4 0.7,-0.7 0.4,0.4 c 0.5,0.5 1.1,1 1.7,1.5 0.8,0.7 1.7,1.3 2.7,1.9 0.5,0.3 1,0.7 1.7,1 0.6,0.3 1.1,0.6 1.7,0.9 1,0.5 2,1 3,1.4 3.6,1.4 6,1.4 6.4,0.7 0.6,-1 -1.6,-3.8 -6.1,-6.8 l -0.4,-0.3 0.6,-0.9 0.4,0.3 c 3.7,2.5 7.6,6.1 6.4,8.2 -0.5,0.7 -1.4,1 -2.4,1 z"
   id="path1670"
   inkscape:connector-curvature="0"
   style="fill:#484751" />
	</g>
	<g
   id="g1676">
		<path
   class="st7"
   d="m 1000.9,1065 -0.4,-0.3 c -2.3,-1.3 -4.6,-2.4 -6.6,-3 l -0.5,-0.1 0.3,-1 0.5,0.1 c 2.1,0.6 4.5,1.7 6.9,3.1 l 0.4,0.3 z"
   id="path1674"
   inkscape:connector-curvature="0"
   style="fill:#484751" />
	</g>
	<g
   id="g1680">
		<path
   class="st7"
   d="m 990.8,1074.4 c -1,0 -1.9,-0.3 -2.3,-1 -1.2,-2 2.5,-5.2 4.1,-6.5 0.8,-0.7 1.8,-1.3 2.8,-2 0.5,-0.3 1.1,-0.7 1.7,-1 0.6,-0.3 1.1,-0.6 1.8,-1 1.1,-0.6 2.1,-1 3.1,-1.4 0.7,-0.3 1.5,-0.5 2.1,-0.7 l 0.5,-0.1 0.3,1 -0.5,0.1 c -0.7,0.2 -1.4,0.4 -2.1,0.7 -1,0.4 -2,0.8 -3,1.4 -0.6,0.3 -1.2,0.6 -1.7,0.9 -0.6,0.3 -1.1,0.7 -1.7,1 -1,0.6 -1.9,1.3 -2.7,1.9 -3,2.4 -4.2,4.4 -3.8,5.2 0.4,0.7 2.7,0.7 6.4,-0.7 1,-0.4 2,-0.8 3,-1.4 0.6,-0.3 1.2,-0.6 1.7,-0.9 0.5,-0.3 1.1,-0.7 1.7,-1 0.9,-0.6 1.8,-1.2 2.6,-1.8 l 0.4,-0.3 0.6,0.8 -0.4,0.3 c -0.8,0.7 -1.7,1.3 -2.7,1.9 -0.6,0.4 -1.1,0.7 -1.7,1 -0.5,0.3 -1.1,0.6 -1.7,1 -1.1,0.5 -2.1,1 -3.1,1.4 -1.3,0.4 -3.6,1.2 -5.4,1.2 z"
   id="path1678"
   inkscape:connector-curvature="0"
   style="fill:#484751" />
	</g>
	<g
   id="g1684">
		<path
   class="st7"
   d="m 1006.4,1066.9 -0.7,-0.8 0.4,-0.4 c 2.2,-2 2.8,-3.5 2.5,-4 -0.3,-0.4 -1.2,-0.6 -2.5,-0.4 l -0.5,0.1 -0.2,-1 0.5,-0.1 c 2.3,-0.4 3.2,0.3 3.6,0.9 0.7,1.2 -0.3,3.1 -2.7,5.3 z"
   id="path1682"
   inkscape:connector-curvature="0"
   style="fill:#484751" />
	</g>
	<g
   id="g1688">
		<path
   class="st7"
   d="m 999,1069.1 c -1,0 -1.8,-0.8 -1.8,-1.8 0,-1 0.8,-1.8 1.8,-1.8 1,0 1.8,0.8 1.8,1.8 -0.1,1 -0.9,1.8 -1.8,1.8 z m 0,-2.5 c -0.4,0 -0.7,0.3 -0.7,0.7 0,0.4 0.3,0.7 0.7,0.7 0.4,0 0.7,-0.3 0.7,-0.7 0,-0.4 -0.3,-0.7 -0.7,-0.7 z"
   id="path1686"
   inkscape:connector-curvature="0"
   style="fill:#484751" />
	</g>
	<g
   id="g1692">
		<path
   class="st7"
   d="m 1005.1,1062.6 c -0.8,0 -1.5,-0.7 -1.5,-1.5 0,-0.8 0.7,-1.5 1.5,-1.5 0.8,0 1.5,0.7 1.5,1.5 0,0.8 -0.7,1.5 -1.5,1.5 z m 0,-1.9 c -0.2,0 -0.4,0.2 -0.4,0.4 0,0.2 0.2,0.4 0.4,0.4 0.2,0 0.4,-0.2 0.4,-0.4 0,-0.2 -0.2,-0.4 -0.4,-0.4 z"
   id="path1690"
   inkscape:connector-curvature="0"
   style="fill:#484751" />
	</g>
	<g
   id="g1696">
		<path
   class="st7"
   d="m 990.4,1066.7 c -0.8,0 -1.5,-0.7 -1.5,-1.5 0,-0.8 0.7,-1.5 1.5,-1.5 0.8,0 1.5,0.7 1.5,1.5 -0.1,0.8 -0.7,1.5 -1.5,1.5 z m 0,-1.9 c -0.2,0 -0.4,0.2 -0.4,0.4 0,0.2 0.2,0.4 0.4,0.4 0.2,0 0.4,-0.2 0.4,-0.4 0,-0.2 -0.2,-0.4 -0.4,-0.4 z"
   id="path1694"
   inkscape:connector-curvature="0"
   style="fill:#484751" />
	</g>
	<g
   id="g1700">
		<path
   class="st7"
   d="m 1001.6,1076.8 c -0.8,0 -1.5,-0.7 -1.5,-1.5 0,-0.8 0.7,-1.5 1.5,-1.5 0.8,0 1.5,0.7 1.5,1.5 -0.1,0.9 -0.7,1.5 -1.5,1.5 z m 0,-1.9 c -0.2,0 -0.4,0.2 -0.4,0.4 0,0.2 0.2,0.4 0.4,0.4 0.2,0 0.4,-0.2 0.4,-0.4 0,-0.2 -0.2,-0.4 -0.4,-0.4 z"
   id="path1698"
   inkscape:connector-curvature="0"
   style="fill:#484751" />
	</g>
</g>
<line
   class="st6"
   x1="1450.2"
   y1="1072.5"
   x2="1482.3"
   y2="1038.4"
   id="line1703"
   style="fill:none;stroke:#484751;stroke-width:2.6322;stroke-miterlimit:10" />
<line
   class="st6"
   x1="1500.3"
   y1="1054.4"
   x2="1480.3"
   y2="1036.4"
   id="line1705"
   style="fill:none;stroke:#484751;stroke-width:2.6322;stroke-miterlimit:10" />
<line
   class="st6"
   x1="1534.7"
   y1="1016.2"
   x2="1498.5"
   y2="1056.4"
   id="line1707"
   style="fill:none;stroke:#484751;stroke-width:2.6322;stroke-miterlimit:10" />
<rect
   x="1103"
   y="1072.1"
   class="st7"
   width="13.2"
   height="32.700001"
   id="rect1709"
   style="fill:#484751" />
<g
   id="vgPQcV.tif">
	<g
   id="g1721">
		<g
   id="g1719">
			<path
   d="m 1136.8,1059.9 c -2.2,-1.2 -3.6,-1.4 -5,1.2 -1.5,2.9 -6.2,2.7 -7.7,-0.3 -0.9,-1.8 -2.1,-2.3 -3.8,-2.9 -1.2,-0.4 -2.4,-1.7 -2.9,-2.9 -0.5,-1.3 0.3,-2.3 2.2,-1.6 -0.2,0.7 -0.4,1.4 -0.7,2.5 1.3,0.3 2.4,0.5 3.8,0.8 0,-1.5 0,-2.5 0,-3.8 -2,-1.1 -5.6,-0.7 -5.3,-4.5 0,-0.5 1.2,-0.9 1.8,-1.3 0.2,0.2 0.3,0.3 0.5,0.5 -0.3,0.7 -0.5,1.4 -0.8,2.3 2.2,0.9 3.9,1.6 5.4,-1.1 1.7,-2.9 6,-2.5 7.7,0.4 0.8,1.5 1.9,2 3.3,2.6 1.2,0.5 2.5,1.7 2.9,2.9 0.6,1.5 -0.4,2.1 -2.1,1.4 0.3,-0.7 0.5,-1.3 0.8,-2.2 -1.2,-0.3 -2.3,-0.6 -3.6,-0.9 0,1.5 0,2.7 0,3.8 2,1.1 5.3,0.9 4.9,4.4 0,0.4 -1,0.8 -1.6,1.2 -0.2,-0.2 -0.3,-0.3 -0.5,-0.5 0.3,-0.5 0.5,-1.2 0.7,-2 z m -5,-6.7 c -2.6,0 -4.9,0 -7.4,0 0,1.2 0,2.3 0,3.4 2.6,0 5,0 7.4,0 0,-1.2 0,-2.1 0,-3.4 z m -6.7,5.8 c -0.1,0.3 -0.2,0.5 -0.3,0.8 1.2,0.6 2.3,1.6 3.5,1.6 1,0 2,-1.2 3.1,-1.8 -0.1,-0.2 -0.3,-0.4 -0.4,-0.6 -2,0 -3.9,0 -5.9,0 z m -0.3,-8.2 c 2.4,0 4.2,0 6.1,0 -1.8,-3 -3.4,-3.1 -6.1,0 z"
   id="path1711"
   inkscape:connector-curvature="0" />
			<path
   class="st8"
   d="m 1131.8,1053.2 c 0,1.3 0,2.2 0,3.4 -2.4,0 -4.8,0 -7.4,0 0,-1.1 0,-2.2 0,-3.4 2.5,0 4.8,0 7.4,0 z"
   id="path1713"
   inkscape:connector-curvature="0"
   style="fill:#ffffff" />
			<path
   class="st8"
   d="m 1125.1,1059 c 1.9,0 3.9,0 5.8,0 0.1,0.2 0.3,0.4 0.4,0.6 -1,0.6 -2,1.8 -3.1,1.8 -1.2,0 -2.3,-1 -3.5,-1.6 0.2,-0.2 0.3,-0.5 0.4,-0.8 z"
   id="path1715"
   inkscape:connector-curvature="0"
   style="fill:#ffffff" />
			<path
   class="st8"
   d="m 1124.8,1050.8 c 2.6,-3.1 4.3,-3 6.1,0 -1.8,0 -3.7,0 -6.1,0 z"
   id="path1717"
   inkscape:connector-curvature="0"
   style="fill:#ffffff" />
		</g>
	</g>
</g>
<circle
   class="st0"
   cx="212.90901"
   cy="212.29314"
   r="203.67825"
   id="circle1724"
   style="display:inline;fill:#f2fafc;stroke-width:1.88765752;opacity:1;fill-opacity:1"
   inkscape:highlight-color="4278190335" />
<circle
   class="st0"
   cx="229.60001"
   cy="1060.7"
   r="107.9"
   id="circle1726"
   style="display:inline" />
<circle
   class="st5"
   cx="663.40002"
   cy="1060.7"
   r="107.9"
   id="circle1728"
   style="display:inline" />
<g
   id="bandwidth_1_">
	<path
   class="st9"
   d="m 675.9,1036.7 c -6,-5.3 -13.8,-8.5 -22.4,-8.5 -18.7,0 -33.9,15.2 -33.9,33.9 h -6.8 c 0,-29 23.5,-52.6 52.6,-52.6 29.1,0 52.6,23.5 52.6,52.6 h -20.4"
   id="path1730"
   inkscape:connector-curvature="0"
   style="fill:none;stroke:#464646;stroke-width:2;stroke-linecap:round;stroke-linejoin:round;stroke-miterlimit:10" />
	<path
   class="st10"
   d="m 666.6,1099.1 c -7.3,7.3 -19.1,7.3 -26.4,0 -7.3,-7.3 -7.3,-19.1 0,-26.4 7.3,-7.3 57.3,-36 57.3,-36 0,0 -23.6,55.2 -30.9,62.4 z"
   id="path1732"
   inkscape:connector-curvature="0"
   style="fill:#464646" />
	<circle
   class="st11"
   cx="653.40002"
   cy="1085.9"
   r="8.5"
   id="circle1734"
   style="fill:#ffffff;stroke:#464646;stroke-width:2;stroke-linecap:round;stroke-linejoin:round;stroke-miterlimit:10" />
</g>
<g
   id="g1751">
	<path
   class="st10"
   d="m 203.3,1103.8 c -3.1,0 -3.9,-1 -3.9,-2.6 v -4.3 c 0,-1.5 0.8,-2.6 3.9,-2.6 3.1,0 3.9,1.1 3.9,2.6 v 4.3 c 0,1.5 -0.8,2.6 -3.9,2.6 z m 0,-2.5 c 0.9,0 1,-0.3 1,-0.6 v -3.4 c 0,-0.3 -0.1,-0.6 -1,-0.6 -0.9,0 -1,0.3 -1,0.6 v 3.4 c 0,0.3 0.1,0.6 1,0.6 z"
   id="path1737"
   inkscape:connector-curvature="0"
   style="fill:#464646" />
	<path
   class="st10"
   d="m 210.1,1103.6 c -0.3,0 -0.5,-0.1 -0.5,-0.5 v -1.5 c 0,-0.3 0.1,-0.5 0.5,-0.5 h 1.4 v -4.2 h -1.2 c -0.3,0 -0.5,-0.1 -0.5,-0.5 v -1.5 c 0,-0.3 0.1,-0.5 0.5,-0.5 h 3.7 c 0.3,0 0.5,0.1 0.5,0.5 v 6.2 h 1.2 c 0.3,0 0.5,0.1 0.5,0.5 v 1.5 c 0,0.3 -0.1,0.5 -0.5,0.5 z"
   id="path1739"
   inkscape:connector-curvature="0"
   style="fill:#464646" />
	<path
   class="st10"
   d="m 222.4,1103.8 c -3.1,0 -3.9,-1 -3.9,-2.6 v -4.3 c 0,-1.5 0.8,-2.6 3.9,-2.6 3.1,0 3.9,1.1 3.9,2.6 v 4.3 c 0,1.5 -0.7,2.6 -3.9,2.6 z m 0,-2.5 c 0.9,0 1,-0.3 1,-0.6 v -3.4 c 0,-0.3 -0.1,-0.6 -1,-0.6 -0.9,0 -1,0.3 -1,0.6 v 3.4 c 0,0.3 0.2,0.6 1,0.6 z"
   id="path1741"
   inkscape:connector-curvature="0"
   style="fill:#464646" />
	<path
   class="st10"
   d="m 229.3,1103.6 c -0.3,0 -0.5,-0.1 -0.5,-0.5 v -1.5 c 0,-0.3 0.1,-0.5 0.5,-0.5 h 1.4 v -4.2 h -1.2 c -0.3,0 -0.5,-0.1 -0.5,-0.5 v -1.5 c 0,-0.3 0.1,-0.5 0.5,-0.5 h 3.7 c 0.3,0 0.5,0.1 0.5,0.5 v 6.2 h 1.2 c 0.3,0 0.5,0.1 0.5,0.5 v 1.5 c 0,0.3 -0.1,0.5 -0.5,0.5 z"
   id="path1743"
   inkscape:connector-curvature="0"
   style="fill:#464646" />
	<path
   class="st10"
   d="m 241.6,1103.8 c -3.1,0 -3.9,-1 -3.9,-2.6 v -4.3 c 0,-1.5 0.8,-2.6 3.9,-2.6 3.1,0 3.9,1.1 3.9,2.6 v 4.3 c -0.1,1.5 -0.8,2.6 -3.9,2.6 z m 0,-2.5 c 0.9,0 1,-0.3 1,-0.6 v -3.4 c 0,-0.3 -0.1,-0.6 -1,-0.6 -0.9,0 -1,0.3 -1,0.6 v 3.4 c 0,0.3 0.1,0.6 1,0.6 z"
   id="path1745"
   inkscape:connector-curvature="0"
   style="fill:#464646" />
	<path
   class="st10"
   d="m 248.4,1103.6 c -0.3,0 -0.5,-0.1 -0.5,-0.5 v -1.5 c 0,-0.3 0.1,-0.5 0.5,-0.5 h 1.4 v -4.2 h -1.2 c -0.3,0 -0.5,-0.1 -0.5,-0.5 v -1.5 c 0,-0.3 0.1,-0.5 0.5,-0.5 h 3.7 c 0.3,0 0.5,0.1 0.5,0.5 v 6.2 h 1.2 c 0.3,0 0.5,0.1 0.5,0.5 v 1.5 c 0,0.3 -0.1,0.5 -0.5,0.5 z"
   id="path1747"
   inkscape:connector-curvature="0"
   style="fill:#464646" />
	<path
   class="st10"
   d="m 260.7,1103.8 c -3.1,0 -3.9,-1 -3.9,-2.6 v -4.3 c 0,-1.5 0.8,-2.6 3.9,-2.6 3.1,0 3.9,1.1 3.9,2.6 v 4.3 c 0,1.5 -0.8,2.6 -3.9,2.6 z m 0,-2.5 c 0.9,0 1,-0.3 1,-0.6 v -3.4 c 0,-0.3 -0.1,-0.6 -1,-0.6 -0.9,0 -1,0.3 -1,0.6 v 3.4 c 0,0.3 0.2,0.6 1,0.6 z"
   id="path1749"
   inkscape:connector-curvature="0"
   style="fill:#464646" />
</g>
<path
   class="st12"
   d="m 273,1116.6 h -86.3 c -4.4,0 -8,-3.6 -8,-8 v -52.5 c 0,-4.4 3.6,-8 8,-8 H 273 c 4.4,0 8,3.6 8,8 v 52.5 c -0.1,4.4 -3.6,8 -8,8 z"
   id="path1753"
   inkscape:connector-curvature="0"
   style="fill:none;stroke:#464646;stroke-width:4;stroke-miterlimit:10" />
<path
   class="st13"
   d="m 255,1037.9 v 10.7 h -51.2 v -10.7 c 0,-4 3.3,-7.4 7.3,-7.5 0.2,1.6 0.5,2.9 0.8,4 0.1,2.8 2.4,5.1 5.2,5.1 0.9,0 1.7,-0.2 2.4,-0.6 0.9,1.5 2.6,2.4 4.4,2.4 0.8,0 1.6,-0.2 2.2,-0.5 1,1.1 2.4,1.8 4,1.8 0.8,0 1.5,-0.2 2.2,-0.5 0.7,-0.3 1.3,-0.8 1.7,-1.3 0.8,1.8 2.7,3.1 4.8,3.1 1.4,0 2.8,-0.6 3.7,-1.5 0.9,-1 1.5,-2.3 1.5,-3.7 v -8.3 h 3.4 c 1.3,0.1 2.4,0.3 3.4,0.8 v 0 c 2.6,1.3 4.2,3.8 4.2,6.7 z"
   id="path1755"
   inkscape:connector-curvature="0"
   style="fill:none;stroke:#464646;stroke-width:2;stroke-miterlimit:10" />
<path
   class="st14"
   d="m 211.8,1033.9 c 0.1,2.8 2.4,5.1 5.2,5.1 0.9,0 1.7,-0.2 2.4,-0.6 0.9,1.5 2.6,2.4 4.4,2.4 0.8,0 1.6,-0.2 2.2,-0.5 1,1.1 2.4,1.8 4,1.8 0.8,0 1.5,-0.2 2.2,-0.5 0.7,-0.3 1.3,-0.8 1.7,-1.3 0.8,1.8 2.7,3.1 4.8,3.1 1.4,0 2.8,-0.6 3.7,-1.5 0.9,-1 1.5,-2.3 1.5,-3.7 v -8.5 c 0.2,0.1 3.8,1.2 6.8,1.1 v 0 c 2.5,-0.3 4.5,-1.5 5.6,-3.1 0.4,-0.5 0.6,-1.1 0.7,-1.7 0.2,-1.2 -0.3,-2.4 -1.5,-3 -7.2,-3.9 -11.8,-9.9 -14.2,-13.7 h 0.3 c 0.9,0 1.7,-0.7 1.7,-1.7 v -5.4 c 0,-0.9 -0.7,-1.7 -1.7,-1.7 h -27.5 c -0.9,0 -1.7,0.7 -1.7,1.7 v 5.4 c 0,0.9 0.7,1.7 1.7,1.7 h 0.4 c -0.3,1.9 -0.9,3.9 -1.6,6 -1.3,3.5 -1.9,6.7 -2,9.5 -0.1,1.9 -0.1,3.7 0.1,5.2 0.2,1.4 0.5,2.8 0.8,3.9 z"
   id="path1757"
   inkscape:connector-curvature="0"
   style="fill:none;stroke:#464646;stroke-width:3;stroke-miterlimit:10" />
<path
   class="st14"
   d="m 235.7,1082.2 h -11.8 c -1.7,0 -3.2,-1.4 -3.2,-3.2 v -2.4 c 0,-1.7 1.4,-3.2 3.2,-3.2 h 11.8 c 1.7,0 3.2,1.4 3.2,3.2 v 2.4 c -0.1,1.8 -1.5,3.2 -3.2,3.2 z"
   id="path1759"
   inkscape:connector-curvature="0"
   style="fill:none;stroke:#464646;stroke-width:3;stroke-miterlimit:10" />
<line
   class="st14"
   x1="221.60001"
   y1="1078.1"
   x2="178.10001"
   y2="1058.7"
   id="line1761"
   style="fill:none;stroke:#464646;stroke-width:3;stroke-miterlimit:10" />
<line
   class="st14"
   x1="239.7"
   y1="1077.3"
   x2="280.29999"
   y2="1058"
   id="line1763"
   style="fill:none;stroke:#464646;stroke-width:3;stroke-miterlimit:10" />
<path
   class="st12"
   d="m 238.5,1008.2 h -22.3 c -2.2,0 -3.9,-1.8 -3.9,-3.9 v 0 c 0,-2.2 1.8,-3.9 3.9,-3.9 h 22.3 c 2.2,0 3.9,1.8 3.9,3.9 v 0 c 0,2.2 -1.7,3.9 -3.9,3.9 z"
   id="path1765"
   inkscape:connector-curvature="0"
   style="fill:none;stroke:#464646;stroke-width:4;stroke-miterlimit:10" />
<path
   class="st10"
   d="m 237.9,1008.4 h -21.3 c -2.2,0 -3.9,-1.8 -3.9,-3.9 v 0 c 0,-2.2 1.8,-3.9 3.9,-3.9 h 21.3 c 2.2,0 3.9,1.8 3.9,3.9 v 0 c 0,2.2 -1.8,3.9 -3.9,3.9 z"
   id="path1767"
   inkscape:connector-curvature="0"
   style="display:inline;fill:#464646" />
<g
   id="g1802"
   transform="matrix(1.8876574,0,0,1.8876574,-255.04126,-202.42518)">
	<rect
   x="181"
   y="166.60001"
   class="st15"
   width="114.4"
   height="19.200001"
   id="rect1769"
   style="fill:#999999" />
	<g
   id="g1777">
		<circle
   class="st16"
   cx="191.2"
   cy="176.3"
   r="2.9000001"
   id="circle1771"
   style="fill:#cccccc" />
		<circle
   class="st16"
   cx="200.60001"
   cy="176.3"
   r="2.9000001"
   id="circle1773"
   style="fill:#cccccc" />
		<circle
   class="st16"
   cx="209.89999"
   cy="176.3"
   r="2.9000001"
   id="circle1775"
   style="fill:#cccccc" />
	</g>
	<path
   class="st17"
   d="m 198.4,206.7 h 97.7 V 171 c 0,-3.1 -2.5,-5.6 -5.6,-5.6 h -105 c -3.1,0 -5.6,2.5 -5.6,5.6 v 86.3 c 0,3.1 2.5,5.6 5.6,5.6 h 12.8 v -56.2 z"
   id="path1779"
   inkscape:connector-curvature="0"
   style="fill:none;stroke:#999999;stroke-width:2;stroke-linecap:square;stroke-linejoin:round;stroke-miterlimit:10" />
	<rect
   x="199.8"
   y="187.39999"
   class="st10"
   width="114.4"
   height="19.200001"
   id="rect1781"
   style="fill:#464646" />
	<g
   id="programming_3_">
		<path
   class="st18"
   d="m 309.4,186.3 h -105 c -3.1,0 -5.6,2.5 -5.6,5.6 v 86.3 c 0,3.1 2.5,5.6 5.6,5.6 h 105 c 3.1,0 5.6,-2.5 5.6,-5.6 v -86.3 c 0,-3.1 -2.5,-5.6 -5.6,-5.6 z"
   id="path1783"
   inkscape:connector-curvature="0"
   style="fill:none;stroke:#464646;stroke-width:2;stroke-linecap:square;stroke-linejoin:round;stroke-miterlimit:10" />
		<g
   id="g1791">
			<circle
   class="st8"
   cx="209"
   cy="196.5"
   r="2.9000001"
   id="circle1785"
   style="fill:#ffffff" />
			<circle
   class="st8"
   cx="218.39999"
   cy="196.5"
   r="2.9000001"
   id="circle1787"
   style="fill:#ffffff" />
			<circle
   class="st8"
   cx="227.89999"
   cy="196.5"
   r="2.9000001"
   id="circle1789"
   style="fill:#ffffff" />
		</g>
		<line
   class="st9"
   x1="198.7"
   y1="206.89999"
   x2="315"
   y2="206.89999"
   id="line1793"
   style="fill:none;stroke:#464646;stroke-width:2;stroke-linecap:round;stroke-linejoin:round;stroke-miterlimit:10" />
	</g>
	<g
   id="g1800">
		<polyline
   class="st18"
   points="217.1,220.8 232.1,234 217.1,247.1   "
   id="polyline1796"
   style="fill:none;stroke:#464646;stroke-width:2;stroke-linecap:square;stroke-linejoin:round;stroke-miterlimit:10" />
		<line
   class="st18"
   x1="237.7"
   y1="249"
   x2="250.8"
   y2="249"
   id="line1798"
   style="fill:none;stroke:#464646;stroke-width:2;stroke-linecap:square;stroke-linejoin:round;stroke-miterlimit:10" />
	</g>
</g>
</svg>