<svg id="Layer_1" data-name="Layer 1" xmlns="http://www.w3.org/2000/svg" xmlns:xlink="http://www.w3.org/1999/xlink" viewBox="0 0 468 288">
  <defs>
    <style>
      .cls-1 {
        fill: none;
      }

      .cls-2 {
        fill: #fff;
      }

      .cls-3 {
        opacity: 0.4;
        fill: url(#linear-gradient);
      }

      .cls-4 {
        fill: #808285;
      }

      .cls-4, .cls-5 {
        fill-rule: evenodd;
      }

      .cls-5 {
        fill: #d1d3d4;
      }

      .cls-6 {
        isolation: isolate;
      }

      .cls-7 {
        fill: #cdcdcd;
      }

      .cls-8 {
        fill: #b3b3b3;
      }

      .cls-9 {
        fill: #ededed;
      }

      .cls-10 {
        clip-path: url(#clip-path);
      }

      .cls-11 {
        fill: #bababa;
      }

      .cls-12 {
        fill: #c2c2c2;
      }

      .cls-13 {
        fill: #c9c9c9;
      }
    </style>
    <linearGradient id="linear-gradient" x1="274.75" y1="81.33" x2="263.26" y2="111.26" gradientUnits="userSpaceOnUse">
      <stop offset="0" stop-color="#fff" stop-opacity="0"/>
      <stop offset="0.79" stop-color="#fff" stop-opacity="0.7"/>
      <stop offset="1" stop-color="#fff"/>
    </linearGradient>
    <clipPath id="clip-path">
      <path class="cls-1" d="M229.9,62.06l-7.79-4.29c-.14-8.61,7.06-16.41,16-17.35l7.79,4.29C237,45.65,229.77,53.45,229.9,62.06Z"/>
    </clipPath>
  </defs>
  <g>
    <path class="cls-2" d="M70,191.24V202H37.83a2.2,2.2,0,0,0-2.18,2.18v44.63H24.94V204.13a12.86,12.86,0,0,1,12.89-12.89Z"/>
    <path class="cls-2" d="M138.57,204.13v44.63H93a12.87,12.87,0,0,1-12.9-12.89V214.64h47.81V204.13a2.2,2.2,0,0,0-2.18-2.18H80.05V191.24h45.63A12.86,12.86,0,0,1,138.57,204.13Zm-10.71,21.22H90.76v10.52A2.21,2.21,0,0,0,93,238.05h34.91Z"/>
    <path class="cls-2" d="M208.13,172.39v76.37H162.51a12.87,12.87,0,0,1-12.9-12.89V204.13a12.87,12.87,0,0,1,12.9-12.89h34.91V172.39Zm-12.89,65.66a2.2,2.2,0,0,0,2.18-2.18V204.13a2.2,2.2,0,0,0-2.18-2.18H162.51a2.2,2.2,0,0,0-2.18,2.18v31.74a2.2,2.2,0,0,0,2.18,2.18Z"/>
    <path class="cls-2" d="M231.46,172.39V183.1H220.75V172.39Zm-10.71,18.85h10.71v57.52H220.75Z"/>
    <path class="cls-2" d="M302.17,191.24v44.63a12.86,12.86,0,0,1-12.89,12.89H256.55a12.87,12.87,0,0,1-12.9-12.89V191.24h10.72v44.63a2.2,2.2,0,0,0,2.18,2.18h32.73a2.2,2.2,0,0,0,2.18-2.18V191.24Z"/>
    <path class="cls-2" d="M372.71,206.31H362v-2.18a2.2,2.2,0,0,0-2.18-2.18H327.08a2.2,2.2,0,0,0-2.18,2.18v8.33a2.2,2.2,0,0,0,2.18,2.18h32.73a12.87,12.87,0,0,1,12.9,12.9v8.33a12.87,12.87,0,0,1-12.9,12.89H327.08a12.86,12.86,0,0,1-12.89-12.89v-2.19H324.9v2.19a2.2,2.2,0,0,0,2.18,2.18h32.73a2.2,2.2,0,0,0,2.18-2.18v-8.33a2.21,2.21,0,0,0-2.18-2.19H327.08a12.86,12.86,0,0,1-12.89-12.89v-8.33a12.86,12.86,0,0,1,12.89-12.89h32.73a12.87,12.87,0,0,1,12.9,12.89Z"/>
    <path class="cls-2" d="M443.06,206.31H432.35v-2.18a2.2,2.2,0,0,0-2.18-2.18H397.44a2.21,2.21,0,0,0-2.19,2.18v8.33a2.21,2.21,0,0,0,2.19,2.18h32.73a12.87,12.87,0,0,1,12.89,12.9v8.33a12.86,12.86,0,0,1-12.89,12.89H397.44a12.87,12.87,0,0,1-12.9-12.89v-2.19h10.71v2.19a2.21,2.21,0,0,0,2.19,2.18h32.73a2.2,2.2,0,0,0,2.18-2.18v-8.33a2.21,2.21,0,0,0-2.18-2.19H397.44a12.87,12.87,0,0,1-12.9-12.89v-8.33a12.87,12.87,0,0,1,12.9-12.89h32.73a12.86,12.86,0,0,1,12.89,12.89Z"/>
  </g>
  <g>
    <polygon class="cls-3" points="246.17 110.66 304.08 97.62 286.96 92.06 230.61 103.62 246.17 110.66"/>
    <g>
      <path class="cls-4" d="M321.54,122.78a7.8,7.8,0,0,1,1,3.66c0,13.66-39.72,24.73-88.69,24.73s-88.69-11.07-88.69-24.73a7.08,7.08,0,0,1,.3-2c10.25,10.58,45.49,18.38,87.37,18.38C276.81,142.79,313.48,134.18,321.54,122.78Z"/>
      <path class="cls-5" d="M324.81,111.17c0,13.72-40.66,24.84-90.81,24.84s-90.81-11.12-90.81-24.84S183.85,86.32,234,86.32,324.81,97.45,324.81,111.17ZM234.8,87c-42.26,0-76.53,9.17-76.53,20.47s34.27,20.47,76.53,20.47,76.54-9.17,76.54-20.47S277.07,87,234.8,87Z"/>
    </g>
    <g class="cls-6">
      <polygon class="cls-7" points="245.91 44.71 238.12 40.42 276.03 36.44 283.82 40.73 245.91 44.71"/>
      <polygon class="cls-8" points="230.68 112.15 222.89 107.86 222.11 57.77 229.9 62.06 230.68 112.15"/>
      <path class="cls-9" d="M283.82,40.73l.23,14.85-37.91,4a.87.87,0,0,0-.81.88l.78,50.09-15.43,1.62-.78-50.09c-.13-8.61,7.06-16.41,16-17.35Z"/>
      <g class="cls-6">
        <g class="cls-10">
          <g class="cls-6">
            <path class="cls-11" d="M229.9,62.06l-7.79-4.29a16.78,16.78,0,0,1,4.6-11.56l7.8,4.29a16.79,16.79,0,0,0-4.61,11.56"/>
            <path class="cls-12" d="M234.51,50.5l-7.8-4.29a18.67,18.67,0,0,1,5.31-4l7.79,4.29a18.48,18.48,0,0,0-5.3,4"/>
            <path class="cls-13" d="M239.81,46.51,232,42.22a17.75,17.75,0,0,1,6.1-1.8l7.79,4.29a17.88,17.88,0,0,0-6.1,1.8"/>
          </g>
        </g>
      </g>
    </g>
  </g>
</svg>
