<?xml version="1.0" encoding="UTF-8" standalone="no"?>
<!-- Generator: Adobe Illustrator 23.0.4, SVG Export Plug-In . SVG Version: 6.00 Build 0)  -->

<svg
   xmlns:dc="http://purl.org/dc/elements/1.1/"
   xmlns:cc="http://creativecommons.org/ns#"
   xmlns:rdf="http://www.w3.org/1999/02/22-rdf-syntax-ns#"
   xmlns:svg="http://www.w3.org/2000/svg"
   xmlns="http://www.w3.org/2000/svg"
   xmlns:sodipodi="http://sodipodi.sourceforge.net/DTD/sodipodi-0.dtd"
   xmlns:inkscape="http://www.inkscape.org/namespaces/inkscape"
   version="1.1"
   id="Layer_1"
   x="0px"
   y="0px"
   viewBox="0 0 425 425"
   xml:space="preserve"
   sodipodi:docname="system-software.svg"
   width="425"
   height="425"
   inkscape:version="0.92.4 (5da689c313, 2019-01-14)"><metadata
   id="metadata10754"><rdf:RDF><cc:Work
       rdf:about=""><dc:format>image/svg+xml</dc:format><dc:type
         rdf:resource="http://purl.org/dc/dcmitype/StillImage" /><dc:title /></cc:Work></rdf:RDF></metadata><defs
   id="defs10752" /><sodipodi:namedview
   pagecolor="#ffffff"
   bordercolor="#666666"
   borderopacity="1"
   objecttolerance="10"
   gridtolerance="10"
   guidetolerance="10"
   inkscape:pageopacity="0"
   inkscape:pageshadow="2"
   inkscape:window-width="1680"
   inkscape:window-height="1005"
   id="namedview10750"
   showgrid="false"
   inkscape:zoom="1.5706089"
   inkscape:cx="122.17503"
   inkscape:cy="222.58011"
   inkscape:window-x="0"
   inkscape:window-y="1"
   inkscape:window-maximized="1"
   inkscape:current-layer="Layer_1" />
<style
   type="text/css"
   id="style10525">
	.st0{opacity:5.000000e-02;fill:#0DA6A1;enable-background:new    ;}
	.st1{fill:none;stroke:#484751;stroke-width:2.6322;stroke-linecap:square;stroke-miterlimit:10;}
	.st2{fill:none;stroke:#505050;stroke-width:2;stroke-miterlimit:10;}
	.st3{fill:#505050;}
	.st4{opacity:5.000000e-02;fill:#009AB7;enable-background:new    ;}
	.st5{opacity:5.000000e-02;fill:#0099B9;enable-background:new    ;}
	.st6{fill:none;stroke:#484751;stroke-width:2.6322;stroke-miterlimit:10;}
	.st7{fill:#484751;}
	.st8{fill:#FFFFFF;}
	.st9{fill:none;stroke:#464646;stroke-width:2;stroke-linecap:round;stroke-linejoin:round;stroke-miterlimit:10;}
	.st10{fill:#464646;}
	.st11{fill:#FFFFFF;stroke:#464646;stroke-width:2;stroke-linecap:round;stroke-linejoin:round;stroke-miterlimit:10;}
	.st12{fill:none;stroke:#464646;stroke-width:4;stroke-miterlimit:10;}
	.st13{fill:none;stroke:#464646;stroke-width:2;stroke-miterlimit:10;}
	.st14{fill:none;stroke:#464646;stroke-width:3;stroke-miterlimit:10;}
</style>
<circle
   class="st0"
   cx="-583"
   cy="1052.5"
   r="107.9"
   id="circle10527" />
<g
   id="_x39__1_">
	<line
   class="st1"
   x1="-603.20001"
   y1="1063.3"
   x2="-611.59998"
   y2="1054.5"
   id="line10529"
   style="fill:none;stroke:#484751;stroke-width:2.6322;stroke-linecap:square;stroke-miterlimit:10" />
	<polyline
   class="st1"
   points="-563.9,1055.4 -530,1089.3 -553.4,1112.7  "
   id="polyline10531"
   style="fill:none;stroke:#484751;stroke-width:2.6322;stroke-linecap:square;stroke-miterlimit:10" />
	<polyline
   class="st1"
   points="-613.2,1052.9 -645.5,1020.6 -622.1,997.2 -582.7,1036.6  "
   id="polyline10533"
   style="fill:none;stroke:#484751;stroke-width:2.6322;stroke-linecap:square;stroke-miterlimit:10" />
	<line
   class="st1"
   x1="-536.20001"
   y1="1083.9"
   x2="-540.5"
   y2="1088.1"
   id="line10535"
   style="fill:none;stroke:#484751;stroke-width:2.6322;stroke-linecap:square;stroke-miterlimit:10" />
	<line
   class="st1"
   x1="-545.59998"
   y1="1074.4"
   x2="-549.90002"
   y2="1078.7"
   id="line10537"
   style="fill:none;stroke:#484751;stroke-width:2.6322;stroke-linecap:square;stroke-miterlimit:10" />
	<line
   class="st1"
   x1="-555.09998"
   y1="1064.9"
   x2="-559.40002"
   y2="1069.2"
   id="line10539"
   style="fill:none;stroke:#484751;stroke-width:2.6322;stroke-linecap:square;stroke-miterlimit:10" />
	<line
   class="st1"
   x1="-593"
   y1="1027"
   x2="-597.29999"
   y2="1031.3"
   id="line10541"
   style="fill:none;stroke:#484751;stroke-width:2.6322;stroke-linecap:square;stroke-miterlimit:10" />
	<line
   class="st1"
   x1="-602.5"
   y1="1017.5"
   x2="-609.40002"
   y2="1024.5"
   id="line10543"
   style="fill:none;stroke:#484751;stroke-width:2.6322;stroke-linecap:square;stroke-miterlimit:10" />
	<line
   class="st1"
   x1="-612"
   y1="1008"
   x2="-616.29999"
   y2="1012.3"
   id="line10545"
   style="fill:none;stroke:#484751;stroke-width:2.6322;stroke-linecap:square;stroke-miterlimit:10" />
	<line
   class="st1"
   x1="-545.59998"
   y1="1074.4"
   x2="-552.59998"
   y2="1081.3"
   id="line10547"
   style="fill:none;stroke:#484751;stroke-width:2.6322;stroke-linecap:square;stroke-miterlimit:10" />
	<line
   class="st1"
   x1="-554.79999"
   y1="1114.1"
   x2="-585.09998"
   y2="1082.2"
   id="line10549"
   style="fill:none;stroke:#484751;stroke-width:2.6322;stroke-linecap:square;stroke-miterlimit:10" />
</g>
<g
   id="g10560">
	<line
   class="st2"
   x1="-562.20001"
   y1="1025.8"
   x2="-596.40002"
   y2="1060"
   id="line10552"
   style="fill:none;stroke:#505050;stroke-width:2;stroke-miterlimit:10" />
	<line
   class="st2"
   x1="-587.40002"
   y1="1069"
   x2="-553.20001"
   y2="1034.8"
   id="line10554"
   style="fill:none;stroke:#505050;stroke-width:2;stroke-miterlimit:10" />
	<polygon
   class="st2"
   points="-621.6,1106.8 -591,1076.2 -587.3,1069.1 -596.3,1060.1 -603.5,1063.7 -634.2,1094.2 -639.6,1096 -641.4,1097.8 -625.2,1114 -623.4,1112.2 "
   id="polygon10556"
   style="fill:none;stroke:#505050;stroke-width:2;stroke-miterlimit:10" />
	<path
   class="st3"
   d="m -533.4,1043.8 c -1.4,-1.4 1.4,-5.8 -1.8,-9 -5.5,-5.5 -11.4,-6.3 -17.9,0.1 -2.4,-2.4 -9,-9 -9,-9 0,0 7.2,-10.9 2.9,-15.2 -8.5,-8.5 -21,-9.7 -26.8,-10.3 0,0 -0.3,-3 -0.3,-4.3 16.6,-3.3 33.7,-3.9 43.9,6.3 l 12.6,12.6 c 3.1,3.1 0.7,7.9 3.6,10.8 3.6,3.6 7.2,0 10.8,3.6 l 3.6,3.6 -16.2,16.2 z"
   id="path10558"
   inkscape:connector-curvature="0"
   style="fill:#505050" />
</g>
<circle
   class="st4"
   cx="1060"
   cy="1052.6"
   r="107.9"
   id="circle10562" />
<circle
   class="st5"
   cx="1495.4"
   cy="1052.6"
   r="107.9"
   id="circle10564" />
<g
   id="_x31_7_1_">
	<polyline
   class="st1"
   points="1564.5,1015.5 1564.5,1099.3 1427.2,1099.3 1427.2,1004.3 1564.5,1004.3  "
   id="polyline10566"
   style="fill:none;stroke:#484751;stroke-width:2.6322;stroke-linecap:square;stroke-miterlimit:10" />
	<polyline
   class="st6"
   points="1513.9,1105.8 1513.9,1117.9 1477.9,1117.9 1477.9,1099.3 1513.9,1099.3  "
   id="polyline10568"
   style="fill:none;stroke:#484751;stroke-width:2.6322;stroke-miterlimit:10" />
	<line
   class="st6"
   x1="1465"
   y1="1117.9"
   x2="1526.8"
   y2="1117.9"
   id="line10570"
   style="fill:none;stroke:#484751;stroke-width:2.6322;stroke-miterlimit:10" />
	<line
   class="st6"
   x1="1427.2"
   y1="1083.4"
   x2="1553.8"
   y2="1083.4"
   id="line10572"
   style="fill:none;stroke:#484751;stroke-width:2.6322;stroke-miterlimit:10" />
	<polygon
   class="st7"
   points="1535.8,1073.9 1541.3,1068.4 1535.1,1062.2 1539.3,1058 1520.1,1052.6 1525.4,1071.9 1529.6,1067.7 "
   id="polygon10574"
   style="fill:#484751" />
</g>
<g
   id="_x31_6_1_">
	<polyline
   class="st1"
   points="1039.4,1025.8 1000,1104.5 969.6,1089.3 1018.6,991.4 1049,1006.6 1039.4,1025.8  "
   id="polyline10577"
   style="fill:none;stroke:#484751;stroke-width:2.6322;stroke-linecap:square;stroke-miterlimit:10" />
	<line
   class="st1"
   x1="1009.6"
   y1="1009.4"
   x2="1040"
   y2="1024.6"
   id="line10579"
   style="fill:none;stroke:#484751;stroke-width:2.6322;stroke-linecap:square;stroke-miterlimit:10" />
	<line
   class="st1"
   x1="1004.2"
   y1="1020.2"
   x2="1034.6"
   y2="1035.4"
   id="line10581"
   style="fill:none;stroke:#484751;stroke-width:2.6322;stroke-linecap:square;stroke-miterlimit:10" />
	<line
   class="st1"
   x1="986.5"
   y1="1080.8"
   x2="996.70001"
   y2="1085.8"
   id="line10583"
   style="fill:none;stroke:#484751;stroke-width:2.6322;stroke-linecap:square;stroke-miterlimit:10" />
	<polyline
   class="st1"
   points="1135.3,1071.6 1135.3,1105.6 1025.8,1105.6 1025.8,1071.6 1036.4,1071.6  "
   id="polyline10585"
   style="fill:none;stroke:#484751;stroke-width:2.6322;stroke-linecap:square;stroke-miterlimit:10" />
	<line
   class="st1"
   x1="1115.2"
   y1="1071.6"
   x2="1115.2"
   y2="1105.6"
   id="line10587"
   style="fill:none;stroke:#484751;stroke-width:2.6322;stroke-linecap:square;stroke-miterlimit:10" />
	<line
   class="st1"
   x1="1103.1"
   y1="1071.6"
   x2="1103.1"
   y2="1105.6"
   id="line10589"
   style="fill:none;stroke:#484751;stroke-width:2.6322;stroke-linecap:square;stroke-miterlimit:10" />
	<line
   class="st1"
   x1="1041.1"
   y1="1081.3"
   x2="1041.1"
   y2="1095.9"
   id="line10591"
   style="fill:none;stroke:#484751;stroke-width:2.6322;stroke-linecap:square;stroke-miterlimit:10" />
	<polyline
   class="st1"
   points="1145.8,1050.9 1145.8,1071.6 1078.3,1071.6  "
   id="polyline10593"
   style="fill:none;stroke:#484751;stroke-width:2.6322;stroke-linecap:square;stroke-miterlimit:10" />
	<polyline
   class="st1"
   points="1061.5,1071.6 1036.4,1071.6 1036.4,1037.7 1145.8,1037.7  "
   id="polyline10595"
   style="fill:none;stroke:#484751;stroke-width:2.6322;stroke-linecap:square;stroke-miterlimit:10" />
	<line
   class="st1"
   x1="1051.6"
   y1="1047.4"
   x2="1051.6"
   y2="1061.9"
   id="line10597"
   style="fill:none;stroke:#484751;stroke-width:2.6322;stroke-linecap:square;stroke-miterlimit:10" />
</g>
<g
   id="_x31_2_1_">
	<g
   id="g10602">
		<path
   class="st7"
   d="m 999,1079.5 c -0.9,0 -1.7,-0.7 -2.4,-2.2 l -0.2,-0.5 0.9,-0.4 0.2,0.5 c 0.5,1 1,1.6 1.4,1.6 0.4,0 1.1,-0.6 1.7,-2.4 l 0.2,-0.5 1,0.3 -0.2,0.5 c -0.8,2.5 -1.9,3.1 -2.6,3.1 z"
   id="path10600"
   inkscape:connector-curvature="0"
   style="fill:#484751" />
	</g>
	<g
   id="g10606">
		<path
   class="st7"
   d="m 996.1,1076 -0.1,-0.5 c -0.2,-0.8 -0.4,-1.8 -0.6,-2.8 -0.2,-1.1 -0.3,-2.2 -0.3,-3.4 0,-0.7 0,-1.3 0,-2 0,-0.7 0,-1.3 0.1,-2 0.1,-1.2 0.2,-2.3 0.3,-3.4 0.3,-2 1.3,-6.8 3.6,-6.8 2.3,0 3.3,4.7 3.6,6.8 0.3,1.7 0.4,3.5 0.4,5.4 0,0.7 0,1.3 0,2 -0.1,1.2 -0.2,2.3 -0.3,3.4 -0.1,0.6 -0.2,1.3 -0.3,1.8 l -0.1,0.5 -1,-0.2 0.1,-0.5 c 0.1,-0.5 0.2,-1.1 0.3,-1.7 0.2,-1 0.3,-2.2 0.3,-3.3 0,-0.6 0,-1.3 0,-1.9 0,-1.9 -0.1,-3.6 -0.4,-5.2 -0.6,-3.9 -1.7,-5.9 -2.6,-5.9 -0.8,0 -2,2 -2.6,5.9 -0.2,1 -0.3,2.2 -0.3,3.3 0,0.6 -0.1,1.3 -0.1,1.9 0,0.6 0,1.3 0,1.9 0.1,1.1 0.2,2.3 0.3,3.3 0.2,1 0.3,1.9 0.6,2.7 l 0.1,0.5 z"
   id="path10604"
   inkscape:connector-curvature="0"
   style="fill:#484751" />
	</g>
	<g
   id="g10610">
		<path
   class="st7"
   d="m 989.8,1065.2 -0.3,-0.4 c -1.2,-1.5 -1.5,-2.7 -1,-3.5 0.3,-0.6 1.2,-1.2 3.6,-0.9 l 0.5,0.1 -0.2,1 -0.5,-0.1 c -1.3,-0.2 -2.3,-0.1 -2.5,0.4 -0.2,0.4 0.1,1.3 0.9,2.4 l 0.3,0.4 z"
   id="path10608"
   inkscape:connector-curvature="0"
   style="fill:#484751" />
	</g>
	<g
   id="g10614">
		<path
   class="st7"
   d="m 1007.2,1074.4 c -1.8,0 -4.1,-0.8 -5.3,-1.3 -1,-0.4 -2.1,-0.9 -3.1,-1.4 -0.6,-0.3 -1.2,-0.6 -1.8,-1 -0.6,-0.4 -1.2,-0.7 -1.7,-1 -1,-0.6 -1.9,-1.3 -2.8,-2 -0.6,-0.5 -1.2,-1 -1.7,-1.5 l -0.4,-0.4 0.7,-0.7 0.4,0.4 c 0.5,0.5 1.1,1 1.7,1.5 0.8,0.7 1.7,1.3 2.7,1.9 0.5,0.3 1,0.7 1.7,1 0.6,0.3 1.1,0.6 1.7,0.9 1,0.5 2,1 3,1.4 3.6,1.4 6,1.4 6.4,0.7 0.6,-1 -1.6,-3.8 -6.1,-6.8 l -0.4,-0.3 0.6,-0.9 0.4,0.3 c 3.7,2.5 7.6,6.1 6.4,8.2 -0.5,0.7 -1.4,1 -2.4,1 z"
   id="path10612"
   inkscape:connector-curvature="0"
   style="fill:#484751" />
	</g>
	<g
   id="g10618">
		<path
   class="st7"
   d="m 1000.9,1065 -0.4,-0.3 c -2.3,-1.3 -4.6,-2.4 -6.6,-3 l -0.5,-0.1 0.3,-1 0.5,0.1 c 2.1,0.6 4.5,1.7 6.9,3.1 l 0.4,0.3 z"
   id="path10616"
   inkscape:connector-curvature="0"
   style="fill:#484751" />
	</g>
	<g
   id="g10622">
		<path
   class="st7"
   d="m 990.8,1074.4 c -1,0 -1.9,-0.3 -2.3,-1 -1.2,-2 2.5,-5.2 4.1,-6.5 0.8,-0.7 1.8,-1.3 2.8,-2 0.5,-0.3 1.1,-0.7 1.7,-1 0.6,-0.3 1.1,-0.6 1.8,-1 1.1,-0.6 2.1,-1 3.1,-1.4 0.7,-0.3 1.5,-0.5 2.1,-0.7 l 0.5,-0.1 0.3,1 -0.5,0.1 c -0.7,0.2 -1.4,0.4 -2.1,0.7 -1,0.4 -2,0.8 -3,1.4 -0.6,0.3 -1.2,0.6 -1.7,0.9 -0.6,0.3 -1.1,0.7 -1.7,1 -1,0.6 -1.9,1.3 -2.7,1.9 -3,2.4 -4.2,4.4 -3.8,5.2 0.4,0.7 2.7,0.7 6.4,-0.7 1,-0.4 2,-0.8 3,-1.4 0.6,-0.3 1.2,-0.6 1.7,-0.9 0.5,-0.3 1.1,-0.7 1.7,-1 0.9,-0.6 1.8,-1.2 2.6,-1.8 l 0.4,-0.3 0.6,0.8 -0.4,0.3 c -0.8,0.7 -1.7,1.3 -2.7,1.9 -0.6,0.4 -1.1,0.7 -1.7,1 -0.5,0.3 -1.1,0.6 -1.7,1 -1.1,0.5 -2.1,1 -3.1,1.4 -1.3,0.4 -3.6,1.2 -5.4,1.2 z"
   id="path10620"
   inkscape:connector-curvature="0"
   style="fill:#484751" />
	</g>
	<g
   id="g10626">
		<path
   class="st7"
   d="m 1006.4,1066.9 -0.7,-0.8 0.4,-0.4 c 2.2,-2 2.8,-3.5 2.5,-4 -0.3,-0.4 -1.2,-0.6 -2.5,-0.4 l -0.5,0.1 -0.2,-1 0.5,-0.1 c 2.3,-0.4 3.2,0.3 3.6,0.9 0.7,1.2 -0.3,3.1 -2.7,5.3 z"
   id="path10624"
   inkscape:connector-curvature="0"
   style="fill:#484751" />
	</g>
	<g
   id="g10630">
		<path
   class="st7"
   d="m 999,1069.1 c -1,0 -1.8,-0.8 -1.8,-1.8 0,-1 0.8,-1.8 1.8,-1.8 1,0 1.8,0.8 1.8,1.8 -0.1,1 -0.9,1.8 -1.8,1.8 z m 0,-2.5 c -0.4,0 -0.7,0.3 -0.7,0.7 0,0.4 0.3,0.7 0.7,0.7 0.4,0 0.7,-0.3 0.7,-0.7 0,-0.4 -0.3,-0.7 -0.7,-0.7 z"
   id="path10628"
   inkscape:connector-curvature="0"
   style="fill:#484751" />
	</g>
	<g
   id="g10634">
		<path
   class="st7"
   d="m 1005.1,1062.6 c -0.8,0 -1.5,-0.7 -1.5,-1.5 0,-0.8 0.7,-1.5 1.5,-1.5 0.8,0 1.5,0.7 1.5,1.5 0,0.8 -0.7,1.5 -1.5,1.5 z m 0,-1.9 c -0.2,0 -0.4,0.2 -0.4,0.4 0,0.2 0.2,0.4 0.4,0.4 0.2,0 0.4,-0.2 0.4,-0.4 0,-0.2 -0.2,-0.4 -0.4,-0.4 z"
   id="path10632"
   inkscape:connector-curvature="0"
   style="fill:#484751" />
	</g>
	<g
   id="g10638">
		<path
   class="st7"
   d="m 990.4,1066.7 c -0.8,0 -1.5,-0.7 -1.5,-1.5 0,-0.8 0.7,-1.5 1.5,-1.5 0.8,0 1.5,0.7 1.5,1.5 -0.1,0.8 -0.7,1.5 -1.5,1.5 z m 0,-1.9 c -0.2,0 -0.4,0.2 -0.4,0.4 0,0.2 0.2,0.4 0.4,0.4 0.2,0 0.4,-0.2 0.4,-0.4 0,-0.2 -0.2,-0.4 -0.4,-0.4 z"
   id="path10636"
   inkscape:connector-curvature="0"
   style="fill:#484751" />
	</g>
	<g
   id="g10642">
		<path
   class="st7"
   d="m 1001.6,1076.8 c -0.8,0 -1.5,-0.7 -1.5,-1.5 0,-0.8 0.7,-1.5 1.5,-1.5 0.8,0 1.5,0.7 1.5,1.5 -0.1,0.9 -0.7,1.5 -1.5,1.5 z m 0,-1.9 c -0.2,0 -0.4,0.2 -0.4,0.4 0,0.2 0.2,0.4 0.4,0.4 0.2,0 0.4,-0.2 0.4,-0.4 0,-0.2 -0.2,-0.4 -0.4,-0.4 z"
   id="path10640"
   inkscape:connector-curvature="0"
   style="fill:#484751" />
	</g>
</g>
<line
   class="st6"
   x1="1450.2"
   y1="1072.5"
   x2="1482.3"
   y2="1038.4"
   id="line10645"
   style="fill:none;stroke:#484751;stroke-width:2.6322;stroke-miterlimit:10" />
<line
   class="st6"
   x1="1500.3"
   y1="1054.4"
   x2="1480.3"
   y2="1036.4"
   id="line10647"
   style="fill:none;stroke:#484751;stroke-width:2.6322;stroke-miterlimit:10" />
<line
   class="st6"
   x1="1534.7"
   y1="1016.2"
   x2="1498.5"
   y2="1056.4"
   id="line10649"
   style="fill:none;stroke:#484751;stroke-width:2.6322;stroke-miterlimit:10" />
<rect
   x="1103"
   y="1072.1"
   class="st7"
   width="13.2"
   height="32.700001"
   id="rect10651"
   style="fill:#484751" />
<g
   id="vgPQcV.tif">
	<g
   id="g10663">
		<g
   id="g10661">
			<path
   d="m 1136.8,1059.9 c -2.2,-1.2 -3.6,-1.4 -5,1.2 -1.5,2.9 -6.2,2.7 -7.7,-0.3 -0.9,-1.8 -2.1,-2.3 -3.8,-2.9 -1.2,-0.4 -2.4,-1.7 -2.9,-2.9 -0.5,-1.3 0.3,-2.3 2.2,-1.6 -0.2,0.7 -0.4,1.4 -0.7,2.5 1.3,0.3 2.4,0.5 3.8,0.8 0,-1.5 0,-2.5 0,-3.8 -2,-1.1 -5.6,-0.7 -5.3,-4.5 0,-0.5 1.2,-0.9 1.8,-1.3 0.2,0.2 0.3,0.3 0.5,0.5 -0.3,0.7 -0.5,1.4 -0.8,2.3 2.2,0.9 3.9,1.6 5.4,-1.1 1.7,-2.9 6,-2.5 7.7,0.4 0.8,1.5 1.9,2 3.3,2.6 1.2,0.5 2.5,1.7 2.9,2.9 0.6,1.5 -0.4,2.1 -2.1,1.4 0.3,-0.7 0.5,-1.3 0.8,-2.2 -1.2,-0.3 -2.3,-0.6 -3.6,-0.9 0,1.5 0,2.7 0,3.8 2,1.1 5.3,0.9 4.9,4.4 0,0.4 -1,0.8 -1.6,1.2 -0.2,-0.2 -0.3,-0.3 -0.5,-0.5 0.3,-0.5 0.5,-1.2 0.7,-2 z m -5,-6.7 c -2.6,0 -4.9,0 -7.4,0 0,1.2 0,2.3 0,3.4 2.6,0 5,0 7.4,0 0,-1.2 0,-2.1 0,-3.4 z m -6.7,5.8 c -0.1,0.3 -0.2,0.5 -0.3,0.8 1.2,0.6 2.3,1.6 3.5,1.6 1,0 2,-1.2 3.1,-1.8 -0.1,-0.2 -0.3,-0.4 -0.4,-0.6 -2,0 -3.9,0 -5.9,0 z m -0.3,-8.2 c 2.4,0 4.2,0 6.1,0 -1.8,-3 -3.4,-3.1 -6.1,0 z"
   id="path10653"
   inkscape:connector-curvature="0" />
			<path
   class="st8"
   d="m 1131.8,1053.2 c 0,1.3 0,2.2 0,3.4 -2.4,0 -4.8,0 -7.4,0 0,-1.1 0,-2.2 0,-3.4 2.5,0 4.8,0 7.4,0 z"
   id="path10655"
   inkscape:connector-curvature="0"
   style="fill:#ffffff" />
			<path
   class="st8"
   d="m 1125.1,1059 c 1.9,0 3.9,0 5.8,0 0.1,0.2 0.3,0.4 0.4,0.6 -1,0.6 -2,1.8 -3.1,1.8 -1.2,0 -2.3,-1 -3.5,-1.6 0.2,-0.2 0.3,-0.5 0.4,-0.8 z"
   id="path10657"
   inkscape:connector-curvature="0"
   style="fill:#ffffff" />
			<path
   class="st8"
   d="m 1124.8,1050.8 c 2.6,-3.1 4.3,-3 6.1,0 -1.8,0 -3.7,0 -6.1,0 z"
   id="path10659"
   inkscape:connector-curvature="0"
   style="fill:#ffffff" />
		</g>
	</g>
</g>
<circle
   class="st0"
   cx="213.20007"
   cy="211.01469"
   r="202.44931"
   id="circle10666"
   style="display:inline;stroke-width:1.87626791;fill:#f2fafc;fill-opacity:1;opacity:1" />
<circle
   class="st0"
   cx="229.60001"
   cy="1060.7"
   r="107.9"
   id="circle10668" />
<circle
   class="st5"
   cx="663.40002"
   cy="1060.7"
   r="107.9"
   id="circle10670" />
<g
   id="bandwidth_1_">
	<path
   class="st9"
   d="m 675.9,1036.7 c -6,-5.3 -13.8,-8.5 -22.4,-8.5 -18.7,0 -33.9,15.2 -33.9,33.9 h -6.8 c 0,-29 23.5,-52.6 52.6,-52.6 29.1,0 52.6,23.5 52.6,52.6 h -20.4"
   id="path10672"
   inkscape:connector-curvature="0"
   style="fill:none;stroke:#464646;stroke-width:2;stroke-linecap:round;stroke-linejoin:round;stroke-miterlimit:10" />
	<path
   class="st10"
   d="m 666.6,1099.1 c -7.3,7.3 -19.1,7.3 -26.4,0 -7.3,-7.3 -7.3,-19.1 0,-26.4 7.3,-7.3 57.3,-36 57.3,-36 0,0 -23.6,55.2 -30.9,62.4 z"
   id="path10674"
   inkscape:connector-curvature="0"
   style="fill:#464646" />
	<circle
   class="st11"
   cx="653.40002"
   cy="1085.9"
   r="8.5"
   id="circle10676"
   style="fill:#ffffff;stroke:#464646;stroke-width:2;stroke-linecap:round;stroke-linejoin:round;stroke-miterlimit:10" />
</g>
<g
   id="g10693">
	<path
   class="st10"
   d="m 203.3,1103.8 c -3.1,0 -3.9,-1 -3.9,-2.6 v -4.3 c 0,-1.5 0.8,-2.6 3.9,-2.6 3.1,0 3.9,1.1 3.9,2.6 v 4.3 c 0,1.5 -0.8,2.6 -3.9,2.6 z m 0,-2.5 c 0.9,0 1,-0.3 1,-0.6 v -3.4 c 0,-0.3 -0.1,-0.6 -1,-0.6 -0.9,0 -1,0.3 -1,0.6 v 3.4 c 0,0.3 0.1,0.6 1,0.6 z"
   id="path10679"
   inkscape:connector-curvature="0"
   style="fill:#464646" />
	<path
   class="st10"
   d="m 210.1,1103.6 c -0.3,0 -0.5,-0.1 -0.5,-0.5 v -1.5 c 0,-0.3 0.1,-0.5 0.5,-0.5 h 1.4 v -4.2 h -1.2 c -0.3,0 -0.5,-0.1 -0.5,-0.5 v -1.5 c 0,-0.3 0.1,-0.5 0.5,-0.5 h 3.7 c 0.3,0 0.5,0.1 0.5,0.5 v 6.2 h 1.2 c 0.3,0 0.5,0.1 0.5,0.5 v 1.5 c 0,0.3 -0.1,0.5 -0.5,0.5 z"
   id="path10681"
   inkscape:connector-curvature="0"
   style="fill:#464646" />
	<path
   class="st10"
   d="m 222.4,1103.8 c -3.1,0 -3.9,-1 -3.9,-2.6 v -4.3 c 0,-1.5 0.8,-2.6 3.9,-2.6 3.1,0 3.9,1.1 3.9,2.6 v 4.3 c 0,1.5 -0.7,2.6 -3.9,2.6 z m 0,-2.5 c 0.9,0 1,-0.3 1,-0.6 v -3.4 c 0,-0.3 -0.1,-0.6 -1,-0.6 -0.9,0 -1,0.3 -1,0.6 v 3.4 c 0,0.3 0.2,0.6 1,0.6 z"
   id="path10683"
   inkscape:connector-curvature="0"
   style="fill:#464646" />
	<path
   class="st10"
   d="m 229.3,1103.6 c -0.3,0 -0.5,-0.1 -0.5,-0.5 v -1.5 c 0,-0.3 0.1,-0.5 0.5,-0.5 h 1.4 v -4.2 h -1.2 c -0.3,0 -0.5,-0.1 -0.5,-0.5 v -1.5 c 0,-0.3 0.1,-0.5 0.5,-0.5 h 3.7 c 0.3,0 0.5,0.1 0.5,0.5 v 6.2 h 1.2 c 0.3,0 0.5,0.1 0.5,0.5 v 1.5 c 0,0.3 -0.1,0.5 -0.5,0.5 z"
   id="path10685"
   inkscape:connector-curvature="0"
   style="fill:#464646" />
	<path
   class="st10"
   d="m 241.6,1103.8 c -3.1,0 -3.9,-1 -3.9,-2.6 v -4.3 c 0,-1.5 0.8,-2.6 3.9,-2.6 3.1,0 3.9,1.1 3.9,2.6 v 4.3 c -0.1,1.5 -0.8,2.6 -3.9,2.6 z m 0,-2.5 c 0.9,0 1,-0.3 1,-0.6 v -3.4 c 0,-0.3 -0.1,-0.6 -1,-0.6 -0.9,0 -1,0.3 -1,0.6 v 3.4 c 0,0.3 0.1,0.6 1,0.6 z"
   id="path10687"
   inkscape:connector-curvature="0"
   style="fill:#464646" />
	<path
   class="st10"
   d="m 248.4,1103.6 c -0.3,0 -0.5,-0.1 -0.5,-0.5 v -1.5 c 0,-0.3 0.1,-0.5 0.5,-0.5 h 1.4 v -4.2 h -1.2 c -0.3,0 -0.5,-0.1 -0.5,-0.5 v -1.5 c 0,-0.3 0.1,-0.5 0.5,-0.5 h 3.7 c 0.3,0 0.5,0.1 0.5,0.5 v 6.2 h 1.2 c 0.3,0 0.5,0.1 0.5,0.5 v 1.5 c 0,0.3 -0.1,0.5 -0.5,0.5 z"
   id="path10689"
   inkscape:connector-curvature="0"
   style="fill:#464646" />
	<path
   class="st10"
   d="m 260.7,1103.8 c -3.1,0 -3.9,-1 -3.9,-2.6 v -4.3 c 0,-1.5 0.8,-2.6 3.9,-2.6 3.1,0 3.9,1.1 3.9,2.6 v 4.3 c 0,1.5 -0.8,2.6 -3.9,2.6 z m 0,-2.5 c 0.9,0 1,-0.3 1,-0.6 v -3.4 c 0,-0.3 -0.1,-0.6 -1,-0.6 -0.9,0 -1,0.3 -1,0.6 v 3.4 c 0,0.3 0.2,0.6 1,0.6 z"
   id="path10691"
   inkscape:connector-curvature="0"
   style="fill:#464646" />
</g>
<path
   class="st12"
   d="m 273,1116.6 h -86.3 c -4.4,0 -8,-3.6 -8,-8 v -52.5 c 0,-4.4 3.6,-8 8,-8 H 273 c 4.4,0 8,3.6 8,8 v 52.5 c -0.1,4.4 -3.6,8 -8,8 z"
   id="path10695"
   inkscape:connector-curvature="0"
   style="fill:none;stroke:#464646;stroke-width:4;stroke-miterlimit:10" />
<path
   class="st13"
   d="m 255,1037.9 v 10.7 h -51.2 v -10.7 c 0,-4 3.3,-7.4 7.3,-7.5 0.2,1.6 0.5,2.9 0.8,4 0.1,2.8 2.4,5.1 5.2,5.1 0.9,0 1.7,-0.2 2.4,-0.6 0.9,1.5 2.6,2.4 4.4,2.4 0.8,0 1.6,-0.2 2.2,-0.5 1,1.1 2.4,1.8 4,1.8 0.8,0 1.5,-0.2 2.2,-0.5 0.7,-0.3 1.3,-0.8 1.7,-1.3 0.8,1.8 2.7,3.1 4.8,3.1 1.4,0 2.8,-0.6 3.7,-1.5 0.9,-1 1.5,-2.3 1.5,-3.7 v -8.3 h 3.4 c 1.3,0.1 2.4,0.3 3.4,0.8 v 0 c 2.6,1.3 4.2,3.8 4.2,6.7 z"
   id="path10697"
   inkscape:connector-curvature="0"
   style="fill:none;stroke:#464646;stroke-width:2;stroke-miterlimit:10" />
<path
   class="st14"
   d="m 211.8,1033.9 c 0.1,2.8 2.4,5.1 5.2,5.1 0.9,0 1.7,-0.2 2.4,-0.6 0.9,1.5 2.6,2.4 4.4,2.4 0.8,0 1.6,-0.2 2.2,-0.5 1,1.1 2.4,1.8 4,1.8 0.8,0 1.5,-0.2 2.2,-0.5 0.7,-0.3 1.3,-0.8 1.7,-1.3 0.8,1.8 2.7,3.1 4.8,3.1 1.4,0 2.8,-0.6 3.7,-1.5 0.9,-1 1.5,-2.3 1.5,-3.7 v -8.5 c 0.2,0.1 3.8,1.2 6.8,1.1 v 0 c 2.5,-0.3 4.5,-1.5 5.6,-3.1 0.4,-0.5 0.6,-1.1 0.7,-1.7 0.2,-1.2 -0.3,-2.4 -1.5,-3 -7.2,-3.9 -11.8,-9.9 -14.2,-13.7 h 0.3 c 0.9,0 1.7,-0.7 1.7,-1.7 v -5.4 c 0,-0.9 -0.7,-1.7 -1.7,-1.7 h -27.5 c -0.9,0 -1.7,0.7 -1.7,1.7 v 5.4 c 0,0.9 0.7,1.7 1.7,1.7 h 0.4 c -0.3,1.9 -0.9,3.9 -1.6,6 -1.3,3.5 -1.9,6.7 -2,9.5 -0.1,1.9 -0.1,3.7 0.1,5.2 0.2,1.4 0.5,2.8 0.8,3.9 z"
   id="path10699"
   inkscape:connector-curvature="0"
   style="fill:none;stroke:#464646;stroke-width:3;stroke-miterlimit:10" />
<path
   class="st14"
   d="m 235.7,1082.2 h -11.8 c -1.7,0 -3.2,-1.4 -3.2,-3.2 v -2.4 c 0,-1.7 1.4,-3.2 3.2,-3.2 h 11.8 c 1.7,0 3.2,1.4 3.2,3.2 v 2.4 c -0.1,1.8 -1.5,3.2 -3.2,3.2 z"
   id="path10701"
   inkscape:connector-curvature="0"
   style="fill:none;stroke:#464646;stroke-width:3;stroke-miterlimit:10" />
<line
   class="st14"
   x1="221.60001"
   y1="1078.1"
   x2="178.10001"
   y2="1058.7"
   id="line10703"
   style="fill:none;stroke:#464646;stroke-width:3;stroke-miterlimit:10" />
<line
   class="st14"
   x1="239.7"
   y1="1077.3"
   x2="280.29999"
   y2="1058"
   id="line10705"
   style="fill:none;stroke:#464646;stroke-width:3;stroke-miterlimit:10" />
<path
   class="st12"
   d="m 238.5,1008.2 h -22.3 c -2.2,0 -3.9,-1.8 -3.9,-3.9 v 0 c 0,-2.2 1.8,-3.9 3.9,-3.9 h 22.3 c 2.2,0 3.9,1.8 3.9,3.9 v 0 c 0,2.2 -1.7,3.9 -3.9,3.9 z"
   id="path10707"
   inkscape:connector-curvature="0"
   style="fill:none;stroke:#464646;stroke-width:4;stroke-miterlimit:10" />
<path
   class="st10"
   d="m 237.9,1008.4 h -21.3 c -2.2,0 -3.9,-1.8 -3.9,-3.9 v 0 c 0,-2.2 1.8,-3.9 3.9,-3.9 h 21.3 c 2.2,0 3.9,1.8 3.9,3.9 v 0 c 0,2.2 -1.8,3.9 -3.9,3.9 z"
   id="path10709"
   inkscape:connector-curvature="0"
   style="fill:#464646" />
<g
   id="g10741"
   transform="matrix(1.8762679,0,0,1.8762679,-251.92673,-201.20138)">
	<g
   id="g10731">
		<g
   id="g10713">
			<path
   class="st10"
   d="M 302.7,276 H 192.8 V 166.1 h 93.6 c 0.9,0 1.7,0.8 1.7,1.7 0,0.9 -0.8,1.7 -1.7,1.7 h -90.2 v 103.1 h 103.1 v -90.2 c 0,-0.9 0.8,-1.7 1.7,-1.7 0.9,0 1.7,0.8 1.7,1.7 V 276 Z"
   id="path10711"
   inkscape:connector-curvature="0"
   style="fill:#464646" />
		</g>
		<g
   id="g10717">
			<path
   class="st10"
   d="m 301.1,184.1 c -0.4,0 -0.9,-0.1 -1.2,-0.5 l -14.7,-14.7 c -0.7,-0.7 -0.7,-1.7 0,-2.4 0.7,-0.7 1.7,-0.7 2.4,0 l 14.7,14.7 c 0.7,0.7 0.7,1.7 0,2.4 -0.4,0.4 -0.8,0.5 -1.2,0.5 z"
   id="path10715"
   inkscape:connector-curvature="0"
   style="fill:#464646" />
		</g>
		<g
   id="g10721">
			<path
   class="st10"
   d="m 268.5,210.7 h -55 c -4.8,0 -8.5,-3.9 -8.5,-8.5 v -36.1 h 72 v 36.1 c 0,4.7 -3.9,8.5 -8.5,8.5 z m -60.2,-41.1 v 32.6 c 0,2.8 2.3,5.2 5.2,5.2 h 55 c 2.8,0 5.2,-2.3 5.2,-5.2 v -32.6 z"
   id="path10719"
   inkscape:connector-curvature="0"
   style="fill:#464646" />
		</g>
		<g
   id="g10725">
			<path
   class="st10"
   d="m 230.6,210.7 c -4.8,0 -8.5,-3.9 -8.5,-8.5 v -36.1 h 53.3 c 0.9,0 1.7,0.8 1.7,1.7 0,0.9 -0.8,1.7 -1.7,1.7 h -49.8 v 32.6 c 0,2.8 2.3,5.2 5.2,5.2 0.9,0 1.7,0.8 1.7,1.7 0,0.9 -0.9,1.7 -1.9,1.7 z"
   id="path10723"
   inkscape:connector-curvature="0"
   style="fill:#464646" />
		</g>
		<g
   id="g10729">
			<path
   class="st10"
   d="M 268.5,202.2 H 253 v -27.4 h 15.5 z m -12.2,-3.5 h 8.5 v -20.6 h -8.5 z"
   id="path10727"
   inkscape:connector-curvature="0"
   style="fill:#464646" />
		</g>
	</g>
	<g
   id="g10735">
		<path
   class="st10"
   d="m 249.5,253.6 c -9.5,0 -17.2,-7.7 -17.2,-17.2 0,-9.5 7.7,-17.2 17.2,-17.2 9.5,0 17.2,7.7 17.2,17.2 0,9.6 -7.7,17.2 -17.2,17.2 z m 0,-30.9 c -7.6,0 -13.7,6.1 -13.7,13.7 0,7.6 6.1,13.7 13.7,13.7 7.6,0 13.7,-6.1 13.7,-13.7 0.1,-7.4 -6.1,-13.7 -13.7,-13.7 z"
   id="path10733"
   inkscape:connector-curvature="0"
   style="fill:#464646" />
	</g>
	<g
   id="g10739">
		<path
   class="st10"
   d="m 254.6,241.6 h -10.3 v -10.3 h 10.3 z m -6.8,-3.4 h 3.5 v -3.5 h -3.5 z"
   id="path10737"
   inkscape:connector-curvature="0"
   style="fill:#464646" />
	</g>
</g>
<polygon
   class="st10"
   points="206.7,204.6 208.3,169.6 223.2,169.3 224.4,206.2 227,207.7 212.6,208.7 "
   id="polygon10743"
   style="fill:#464646"
   transform="matrix(1.8762679,0,0,1.8762679,-251.92673,-201.20138)" />
<polygon
   class="st10"
   points="255.5,199.7 266.3,199.5 266.5,177.3 255.7,177.3 "
   id="polygon10745"
   style="fill:#464646"
   transform="matrix(1.8762679,0,0,1.8762679,-251.92673,-201.20138)" />
<rect
   x="210.76096"
   y="237.47"
   class="st10"
   width="10.5071"
   height="11.445234"
   id="rect10747"
   style="fill:#464646;stroke-width:1.87626791" />
</svg>