<?xml version="1.0" encoding="utf-8"?>
<!-- Generator: Adobe Illustrator 27.8.1, SVG Export Plug-In . SVG Version: 6.00 Build 0)  -->
<svg version="1.1" id="Layer_1" xmlns="http://www.w3.org/2000/svg" xmlns:xlink="http://www.w3.org/1999/xlink" x="0px" y="0px"
	 viewBox="0 0 28.2 24" style="enable-background:new 0 0 28.2 24;" xml:space="preserve">
<style type="text/css">
	.icon {fill:#008DCB;}
</style>
<g>
	<path class="icon" d="M0.4,11.3L11.8,0v2.2L1.9,12l9.9,9.8V24L0.4,12.7C0.1,12.5,0,12.2,0,12C0,11.8,0.1,11.5,0.4,11.3z"/>
	<polygon class="icon" points="16.8,5.5 16.8,11.2 22.5,11.2 	"/>
	<path class="icon" d="M11.4,5.3c0,1.9,0,6.5,0,6.9c0,2.6,1.3,3.9,3.5,3.9c0.5,0,2.7,0,3.9,0l0.7-0.7c-0.5,0-3.2,0-3.6,0
		c-1.9,0-3.6-0.4-3.6-3.2c0-1.2,0-4.9,0-7.6L11.4,5.3z"/>
	<path class="icon" d="M16,13.8c0.5,0,4,0,5.5,0l0.7-0.7c-0.7,0-4.9,0-5.4,0c-1.9,0-1.9,0-1.9-1.9c0-0.9,0-4.8,0-7.5l-0.8-0.8
		c0,3.3,0,9.2,0,9.5C14.1,13.5,14.9,13.8,16,13.8z"/>
	<path class="icon" d="M27.9,11.3L16.5,0v2.2l9.9,9.8l-9.9,9.8V24l11.4-11.3c0.2-0.2,0.4-0.5,0.4-0.7C28.2,11.8,28.1,11.5,27.9,11.3z
		"/>
	<path class="icon" d="M15.1,18.1c-3.3,0-5.4-1.5-5.4-5.8V7.3l-4.6,4.6l9.2,9.2l2.9-2.9H15.1z"/>
</g>
</svg>
